<mxfile host="app.diagrams.net" modified="2022-04-03T00:01:41.591Z" agent="5.0 (Windows NT 10.0; Win64; x64) AppleWebKit/537.36 (KHTML, like Gecko) Chrome/99.0.4844.74 Safari/537.36 Edg/99.0.1150.55" etag="0BvhQLb7fYZX2CU0ScgW" version="17.1.3" type="github">
  <diagram id="6I_tDjzJhvDFeTlJVYa6" name="第 1 页">
    <mxGraphModel dx="1697" dy="917" grid="1" gridSize="10" guides="1" tooltips="1" connect="1" arrows="1" fold="1" page="1" pageScale="1" pageWidth="827" pageHeight="1169" math="0" shadow="0">
      <root>
        <mxCell id="0" />
        <mxCell id="1" parent="0" />
        <mxCell id="e9ZGmNRertge3ZIaKrM7-1" value="0x3F80" style="text;html=1;resizable=0;autosize=1;align=center;verticalAlign=middle;points=[];fillColor=none;strokeColor=none;rounded=0;fontSize=25;" parent="1" vertex="1">
          <mxGeometry x="160" y="55" width="100" height="40" as="geometry" />
        </mxCell>
        <mxCell id="e9ZGmNRertge3ZIaKrM7-2" value="11 1111 1000 0000" style="text;html=1;resizable=0;autosize=1;align=center;verticalAlign=middle;points=[];fillColor=none;strokeColor=none;rounded=0;fontSize=24;" parent="1" vertex="1">
          <mxGeometry x="160" y="105" width="220" height="30" as="geometry" />
        </mxCell>
        <mxCell id="e9ZGmNRertge3ZIaKrM7-4" value="" style="rounded=0;whiteSpace=wrap;html=1;fontSize=25;fillColor=none;strokeColor=#FF0000;" parent="1" vertex="1">
          <mxGeometry x="170" y="108.5" width="55" height="22.5" as="geometry" />
        </mxCell>
        <mxCell id="e9ZGmNRertge3ZIaKrM7-5" value="&lt;font style=&quot;font-size: 20px&quot;&gt;虚拟地址:&lt;/font&gt;" style="text;html=1;resizable=0;autosize=1;align=center;verticalAlign=middle;points=[];fillColor=none;strokeColor=none;rounded=0;fontSize=25;" parent="1" vertex="1">
          <mxGeometry x="70" y="98" width="100" height="40" as="geometry" />
        </mxCell>
        <mxCell id="e9ZGmNRertge3ZIaKrM7-11" style="edgeStyle=elbowEdgeStyle;rounded=0;orthogonalLoop=1;jettySize=auto;html=1;exitX=0;exitY=0.5;exitDx=0;exitDy=0;entryX=0.001;entryY=0.964;entryDx=0;entryDy=0;entryPerimeter=0;fontSize=12;fontColor=#FF0000;strokeColor=#FF0000;" parent="1" source="e9ZGmNRertge3ZIaKrM7-6" target="e9ZGmNRertge3ZIaKrM7-9" edge="1">
          <mxGeometry relative="1" as="geometry">
            <Array as="points">
              <mxPoint x="100" y="380" />
              <mxPoint x="100" y="280" />
              <mxPoint x="100" y="280" />
              <mxPoint x="100" y="260" />
            </Array>
          </mxGeometry>
        </mxCell>
        <mxCell id="e9ZGmNRertge3ZIaKrM7-6" value="PDE 15项" style="rounded=0;whiteSpace=wrap;html=1;fontSize=12;strokeColor=#FF0000;fillColor=none;fontColor=#FF0000;" parent="1" vertex="1">
          <mxGeometry x="163" y="153" width="60" height="20" as="geometry" />
        </mxCell>
        <mxCell id="e9ZGmNRertge3ZIaKrM7-7" value="" style="endArrow=classic;html=1;rounded=0;fontSize=12;fontColor=#FF0000;exitX=0.5;exitY=1;exitDx=0;exitDy=0;entryX=0.583;entryY=0;entryDx=0;entryDy=0;entryPerimeter=0;" parent="1" source="e9ZGmNRertge3ZIaKrM7-4" target="e9ZGmNRertge3ZIaKrM7-6" edge="1">
          <mxGeometry width="50" height="50" relative="1" as="geometry">
            <mxPoint x="300" y="220" as="sourcePoint" />
            <mxPoint x="350" y="170" as="targetPoint" />
          </mxGeometry>
        </mxCell>
        <mxCell id="e9ZGmNRertge3ZIaKrM7-8" value="" style="rounded=0;whiteSpace=wrap;html=1;fontSize=12;fontColor=#FF0000;strokeColor=#000000;fillColor=none;" parent="1" vertex="1">
          <mxGeometry x="450" y="131" width="40" height="249" as="geometry" />
        </mxCell>
        <mxCell id="e9ZGmNRertge3ZIaKrM7-9" value="" style="shape=image;verticalLabelPosition=bottom;labelBackgroundColor=default;verticalAlign=top;aspect=fixed;imageAspect=0;image=data:image/png,iVBORw0KGgoAAAANSUhEUgAAA5IAAAKSCAIAAAAvZHPxAAAgAElEQVR4nOzdd0DUyP84/GSXZQu9SFm6Sq/SqzRRsFFE7AULd9ZTz7PXw3ZYzi72gl0sWFFpih0FASkiHUHpfdmaPH/M88lvv7uA6IkIzusvdjJJZpZs8s5kZoLiOI5AEARBEARB0M+N1NMFgCAIgiAIgqAvg2ErBEEQBEEQ1AvAsBWCIAiCIAjqBWDYCkEQBEEQBPUCMGyFIAiCIAiCegEYtkIQBEEQBEG9AAxbIQiCIAiCoF4Ahq0QBEEQBEFQLwDDVgiCIAiCIKgXgGErBEEQBEEQ1AvAsBWCIAiCIAjqBX6JsLWmpubu3btZWVk4jvd0WSAIgnpYRkZGbGxsXV1dTxcEgiDo60j0dAF+hMLCwhEjRuzevdvU1PRr1+XxeDiOUygUFEXFl2IYxuFwqFQqidSlGwA+n8/n86lUartbgyDo2zQ2Nubn58vKynYlM4vFUlRU1NLSAh9xHK+oqMAwrJNfMZ/Pl5OTk5eXF06sr6/Pzs6WlJTsZF/a2tqqqqrCKQKBAEEQDMPYbHZzc3NeXt6BAwfWr19vZmbWyXa+toLy8vI6OjodZYiOjg4PD8/OzlZUVOzKBiEIgn4SfTBs5fF4qampGIYRKeXl5QiCSElJPX/+XDinurq6rq5uR9upr6+fP39+fHw8juOampp79+51dnYWDjcfP34cFhZWW1srLy+/efPmkJCQTkrF4XDWrVt35swZgUAgLy8fHh4eEhICg1cI+i7evHkzbNgwPp/fxfx///33mjVrwA8Qw7Dly5dfuXKlk98jhmE3b9709fUVTqyoqHB1de18R1evXg0KCiI+cjicsWPHvn79GsMwHo/HYrHYbLanp2dsbGznYeubN2+8vb27VDcEQRBkwYIFe/fuBX9/+vSpuLhYeCmfz1dXVy8tLW1oaCASURQ1NzeXkpLq+l4gCIJ+sD4YtrJYLD8/v/r6epH02bNni6SsW7du48aN7W4kPT195MiRZDJ52bJlcnJyjx8/dnd337Bhw+rVq8G1be/evStXrnRxcZk3b97Dhw+nTJmSnZ29bt26dhtsmpqahg0bVlhYuGDBAg0NjbS0tN9//z0mJiYqKopMJn+PSkPQL83GxiY9PV1eXl74B1VXV+fl5RUQELB+/XoiJMVxvKGhQVZWVjhIpdFosrKyK1askJaWFt/4u3fv9u/fL96qamhoyGazOymVsbGxSAqVSt20adOjR490dHTy8/OjoqKePn3KYDAQBGlubl66dGlra6tw/ilTpgwbNgxBEGtr66ysLAUFBeEzjEAgGDVqlI6OzqFDh4TXqq+vF26XTUpKmjhxonjxRKJweXn5lJSUgQMHdlIjCIKgntUHw1ZZWdmysjLhbqyFhYWWlpbJyclWVlbCOTt6utfW1rZo0SJFRcWEhAQlJSUEQaZPn66pqblr166goCATE5NPnz5t2bJlwoQJR44cIZFIc+fOXbVq1a5duyZPnix+0ufxeGFhYaWlpffv3wcFCA0Ntba2njNnzps3b+zt7b9z/SHo1yMnJycnJyeSWFtb29DQMHPmTDU1NeF0kY84jtfW1srIyEyZMkVFRUV843fu3Nm/f794uoSERExMTFlZWUelampqEk+0sLCwsLBAEOTq1asIghDRM4lEunnzppaWFigDn89PTk4ePnw4WCovLy/SRQFUsKamZvny5SL9EEQ+BgcHjxo1Sjjl5MmT+/fvT0hIEP7SUBSl0+kd1QWCIOhn0AfDVhRFs7OzExMTmUwmSKmqqkIQ5PHjx8JPyioqKn7//fd2I9fS0tL6+vqdO3eCmBVBEDKZPHfu3CNHjrx8+dLY2PjIkSMoim7YsAG0fJDJ5D/++OPo0aOHDx+OiIgQedTY0tJSUlKyYcMG4aDZz89PVlb22rVrdnZ2sKsABH0XPB5vw4YNXC4XfCwtLSWTyefOnbt06RKRZ/78+e12+sRxHMMw0PFUhHCPIxGvXr2Kjo7uaGm7YWu7iNvsNWvWjB49GkGQxsZGa2tr8ZKsWrWKKGRtbW1dXV1SUlJKSgpIAXfRIhWkUChnzpzBcZxGo4GUzMzMlpaWu3fvEnEqWDp27NguFhiCIKhH9MGwFUGQioqK5cuXOzg4gNM0eJB3/fp1otsWhmEvXrwIDQ1td3VDQ8PXr1+LPO5nMBgSEhL19fU8Hi8+Pt7Dw0NDQ4NYqqamNnr06Li4OBaLJdI5TEFB4enTpyKTGFAoFDk5uZqaGgzDYD8BCPouKBRKenp6dna2lpYWuBu0tbVNS0sDS1taWlJTU2fOnNnuumVlZVZWVu128uFwOB3tccuWLVu3bu1oqfizl48fPzo6Ojo6OkpKSpaXl2dlZQ0cOBBFUS0trbi4uC9WEEXRDx8+vHz5ktiyjY1NdnY2+Lu1tTUvL2/WrFniK8bHx9+5c8fS0hJUsKqqqqGh4fTp0xISEsS6NjY2MGyFIOgn1zfDVn9/f+Ew8cOHDwYGBpGRkTY2Nl3cAnE2J9y6daumpsbMzIzNZr99+3bYsGHCraQkEsna2vr06dNNTU3iYxrEr4WZmZkFBQVr166FMSsEfUcoik6dOlW4MyshLS3NwcGhoxX79et38OBB8Z4GCIK8fPly1apVIolz586trq7uvDBVVVU7duy4cOECgiB///23sbExg8GYPn26nJyclJTUvn371NXV//rrLw6H0/W5+VAU9ff3P3DggPii1NRUT0/Pdtc6f/688MfDhw//+++/t27dUlBQ6OJ+IQiCfgZ9LWwtKChYtmyZSCKLxUIQZMWKFeLTxxgbG2/atOmLm33//v2KFSv8/PxcXV3ZbDaGYdra2iJ5lJSUUBTtpGGGUFlZuWbNGiMjo4CAgC9mhiDo26SkpAwdOjQ0NHT79u1fvD+k0+kuLi7t9m1ta2sTT6RQKHQ6Hcdx4fi4pqYmPj5+1KhRYJQVMYcAjuPgyb6ioiI44WRkZCxbtkxfXz80NJRKpUpISIgMxuqKkpKSoUOHuri4nDhxoqM8Z86ciYmJEV+xvLx8+vTp4vfnc+fO/aopCyAIgn6kvha28ni8jIwM4ZTm5ua6ujplZeVHjx5pa2uLtMGAq0vnsrOzR40aJSEhsWfPHgaD0dLSguO4+HyHioqKJBLpi2FrQ0NDSEhIQUHBtWvXZGRkulYtCIK+RUNDg5qaWnc809izZw+fz1+/fr2Kispvv/0G+iM9e/bs3r17oaGhI0aMQBCEx+O9efPG1tZWJDrEcfzYsWMGBgY4jm/btg1F0Y6mNPkikUkDxDU1NQmfEnEc//z5M4qiGIY9e/ZMfJjXN0TPEARBP0xfC1uNjIw+fPhAfGxtbXV2dp42bZq/v//IkSOfP3/er18/BEEePXrUv39/Yr7xTly9evW3337T0tJ68OABWBc88Rd/wUxVVZVAIOh8KG5mZqaXlxeDwYiNjQWjiSEI6iZtbW1UKnXw4MFdyVxdXT137lwqlSq+6NOnT+2ugqKonp5eWFjYrVu3Ll++TNzKRkZGDh8+HEXRpUuXRkZG/vbbb8QUqkBycnJqaurixYt37drl4uIyceLEUaNGmZiYfGX9EDabzWazO+/7NH/+/Pnz5xMfHz9+PHbs2Nu3b1+5cqW0tPTChQsoiuI4fvHixaCgoHarD0EQ9PPoa2GrsE+fPk2YMKG2tnbhwoWysrJGRkYRERHbtm2Lj4+fMGHC4MGDT5w40UnXLj6fv3nz5oiIiN9++23Dhg1EkwaVSiWTyeKz3oAUYqyuuKioqEWLFrm7u+/bt094OBcEQd8FjuN8Pp8Y+F9aWiojI2NkZAQ+dt6FVFpaeuLEieKtjwiCvHjxIjExUTydTCbPnDnT0NAwLi5OUlIyLy8PQZB+/frl5uaeOXPmzZs3N2/ePH78ODGJFdDY2Dhv3rzFixeDRz2urq7u7u7Lly+/detWVyrI5XKJWuTl5ZHJZEdHR/Cx80lkEQR5+PDh9OnThw8fbmdnR6fTfX19ExISPDw8li1bdvjw4ZqamgULFnyxDBAEQT2ob4atOI4nJiYuXry4sLBQS0tLWlpaRkYmPDx8+PDhdDr90qVLy5cvX7JkiXi/LgKHw9m+ffu2bdu2bdu2YMEC4TFVVCp10KBBqampAoGAePjI5XJTUlKcnZ07eu5/8uTJJUuWTJw4cc+ePZ3sF4Kgb8Zms2tra8vLy0Ff0uvXr5uZmUlLS7NYLAaD0dbWxmQyeTxeu+vS6XRXV9eu920FUBR1cXHh8Xhjx4799OnTgQMHZGRk5syZM336dBcXl8ePH4t0gi8uLg4ODlZXVw8JCbl//z6CIGQyefny5URL7cOHD8GEfW1tbeLzZ+E4npeXBwZ9Yhh2/vz5QYMG6erqNjY2ysrKcjgcZWXldoPX5ubmU6dOrVu3rrW1VVNTE0EQU1PToUOHLlu2zMPDIz4+/u7du11sloYgCOpJeN/C5XILCwvHjBlDoVCmTp26c+dOY2PjhoYGgUDAYrFmz55NJpN37twJ2l06cfz4cRKJtH37dgzDxJdu375dTk4uNzeXSMnNzWUwGLt27QIf29raWCwWj8cDH1+9eiUrKxsaGtru1iAI+i4EAkFDQ0NTUxOGYdHR0RQK5dq1a0VFRXp6evv27WtsbGx3LR6PFxAQoKenV1lZ2W6G27dvIwgC3vMsjMvlZmVlubu702g0Hx+fwsLCp0+f9u/fv6KiIjQ0VE9PLzMzUyAQCK+SnZ0tKyubk5OD43h0dLSVlRWLxQKLWlpa1NTUVFVV9fT09PT0dHV1JSUlz507J7JTooIvXryQk5M7fvx4fn6+jIzM9u3b6+vrxQvf0tISFxc3cOBAOTm569evOzg4rFmzBhS+oqLCxMSETqeLlxOCIOjn1NfC1mPHjlGpVAaDcePGDT6f/++//4Kwde/evUePHuVyuTNnzpSQkBgwYEBSUlJHQWRxcbG6uvqkSZPA8zhxjY2N2traPj4+IENbW5ufn5+Kigq4bICP/fr1i46OBpl1dHTc3d2bmpq6rd4QBP3/WCzWn3/+KSkp+eeffwoEgpaWlq1bt1KpVCaTeefOHfH4DISt0tLSY8aMmdgeMKuUSNj66NGjQYMGSUpKWlhY5Obm8vl8HMdB2FpdXd3S0hIcHEyj0dzd3VNTU4m1MAyrrKwEZ552w9YbN24IBAJwm21lZSUetuI4zmazw8PDaTTa7NmzORxOa2vr0aNH6XS6iorKqVOnhHNyuVxfX18ymWxjY1NRUYFhmKOj45o1a1gslq+v74cPH/Lz85lMJoPBGDdu3MePH7/H1w9BENSN+lrYyuFwzp8/X1RUBD7++++/cnJydnZ2ioqKR48exTCMzWYfO3YMDK7S0tJav369+GUsIiICQZD+/fsPErNjxw6QJzY2VlNTU1NT09vbW0NDQ0NDIzExEVyN2tranJycEAQ5e/YsjuOJiYlkMpnJZIpvbcaMGR1FxhAEdV15eXlERMS0adPc3d0VFRWdnZ3v379PPO7AcTwnJ2fs2LEoinp6er548UJ4XRC2SkpKmpiYmLdHT09PPGyNiorS19ePiYkBAStw48YNELbiOM7n8/ft2wd6z2tqahYXF4uUWTxsDQ8Pz8zMBB+5XO6NGzeIRzofP36MiIiYOHGit7e3kpKStbX1zZs3hZ8aFRYWTps2jUQiOTg4PH78mLgnr66ujo6Obm5uBh8dHR2NjIx0dHRMTU2zsrJwHP/8+fPcuXMpFAqFQhk0aBBxHoMgCPoJoXiXp7nudRobG0eOHPnq1aupU6euWrUKXHuAmpqaf//99+XLl4cPHx4wYIDIiu/evevoPeMaGhrEDADV1dV37twpKCgwMjIaMWIEMZgDw7CioiI+n6+ioqKgoPDp06e3b9+2uzU6nT548OB2X8wDQVDX8Xi81atX37hxY/DgwTNmzHBychJ/3QCPx9u/f//OnTu3bt06ZcoUIp3P548dOzY9Pf3Fixft9m29ffv2qFGjbt26NXLkSCIRwzAWiyUtLQ0+Hj58ePfu3bm5uaGhoYcPH6ZQKCC9tLR0x44dRkZGc+bMESnS1atXp0yZ8vnz585nsAIEAsH27dsPHToEKuju7i5+3hAIBCdOnFi1atWmTZvCwsLEv4G3b98OGTJEWlp6yZIlYWFhwuNHX7x4sX//fhKJdOzYsXZfeQ1BEPQz6MthK4IgsbGxCgoKnbwaB4KgvgHDMBRFxWM1EU1NTSJhIgh5q6qqtm3bpqamJr7KgwcPzp8/HxgY6O/v39Fm379/7+/vP3ny5L/++quL00hVVVUVFRWBngZdyQ/O1V2poLS0dLs3wziO79ixY9asWfDlWBAE9VJ9PGyFIAj6MTAMg09OIAiCuhUMWyEIgiAIgqBeALYNQBAEQRAEQb0ADFshCIIgCIKgXgCGrRAEQRAEQVAvAMNWCIIgCIIgqBeAYSsEQRAEQRDUC8CwFYIgCIIgCOoFYNgKQRAEQRAE9QIwbIUgCIIgCIJ6AYnu2zSXyw3fsJHN4XTfLiDom/H5PAkJSk+XAoIgCIJ+LZqaGn8sXvxt63Zj2IrjeOqbN/UNDd23Cwj6ZjQqtY3dhqLwgQME9TIogjQ3N9NoNAkKvPOEoN7HwcHhm9ft3pe7crnc7ts4BP0XQf7+5y5epNPpPV0QCIK+Do7jXoPdd+7+19rGpqfLAkHQt5CUlPy2FbuxtRX5D8WCoO6GY7ikpCQ8RCGoN+JwOGSyBPz9QtCvBj4hhSAIgiAIgnoBGLZCEARBEARBvQAMWyEIgiAIgqBeAIatEARBEARBUC8Aw1YIgiAIgiCoF4BhKwRBEARBENQLwLAVgiAIgiAI6gW6d97Wn1lRUdHGjRuFU8hksqGhoY+Pj6WlJYnUAwH9mjVrPn78KFweY2PjIUOGWFhYCJfnxIkTWVlZO3fu7I4yFBYWSklJqaqqdsfGoW/G5XL/+uuvxsZG4UQdHR0XFxdPT0/Kz/euIAzDnjx5cuXKFRRFJ02aJPxOlM+fP69du5bH4wnnNzIy8vDwsLe3J5FIPB5v+/bteXl5HW3czs5u3rx57S7icrkHDhwIDAzU1dUVL1Jubm5ycnJGRgaLxRowYICTk5OLiwuNRhPJmZubu23bNuEUEomkr68/dOhQa2trFEVB4sGDB1+9etVuMZYuXWpmZhYbG3vx4sXffvvNyclJJMPx48dzc3O3b9/eUR2JMp86dap///4eHh4i6S9evLh27RqLxXJxcQkODqZSqcIZKioqLl26lJ6ebmxsHBwcPGDAAOHvZ8KECWpqap3vGuomAoFgz549GRkZwolKSkq2trYjRoyQlZXtqYJ15P3792fOnKmpqfH09Bw3bhw4/jEMO3LkyIsXL4RzSktLDxo0KCAgQElJCUGQFy9eREZGdrLliIgIFRUV8fQXL168efNmzpw54hfihoaGR48evXr1qry8XFZW1sbGxsfHh8lkim9E5HqKIIiioqKTk5Ofn5+0tDRIyc7OjoiIaLdsNjY2CxYsACdeTU3NP//8U6QwZWVla9eubffXLaKoqGjLli379u0TOdVUVVVdunQpLS1t4MCBQUFBRkZG7a6elpb28uXLsLAwogDx8fGfPn2aPHly5/vts/BfVUfXGwRBFi5cyGKxfnyRLCws2i1PUFBQRUUFkW3mzJk6OjrdUYCnT59KS0tnZWV1x8Z/NsOHDuuR//K3aW1tVVdXb/fw8PT0FD48fhKXLl0iSnjr1i3hRe/fv2/35WQoik6ZMqWxsZHNZru5uXVy1ho7dmxH+718+bKDgwOHwxFO5PP5169ft7GxISJOgpqa2s6dO0WOhMTExI52PXfuXDabDbKFhIR0lO3Bgwc4ju/YsQNBEFtb27a2NpFyhoaG6unpffFrfPToEY1GO3z4sHBiW1vb0qVLhXfXv3//Dx8+EBnu378vHA1ISUkdOnSIWHr27FkPD49edPC3y8bS6tXLVz1dim/B5XKHDx/e7mGjpaWVmpra0wX8P/Lz82VkZEDx1q5di2EYSOfz+RMnTmy3FgwG4+bNmziOnz9/vqMfCFBQUCC+RxAfP336VCQ9Ly/vt99+a/cFE+PHj3/79q1I/o6up/r6+sSXHBcX11HZgoKC8P+deBkMRkxMjMj2wY3H2bNnO/8C6+rqxowZQ6PRmpubhdMTEhKEo206nb53714+ny+yeklJibm5+dixY3k8HpH46dMnJyenjIyMznfdV/3qYavwBRXDsPz8fEtLSxRFT5069eOLZGFhMXr0aOIjn89///796NGjJSQk/P39uVxudxfgxIkTCILAsPUnBM6emzdvFk6srq6eOnUqiUT6448/eqpgHQkNDZWWlgaXJYFAILwIhK1Xr14VTiwsLPT09ERRVCREw3E8KSmJQqEkJyd/cadVVVXW1tZPnjwRTuRyuXPnziWRSGpqaitWrCgsLOTz+RiG1dXVnTx50tjYWEJCwtnZuaamhlgFhK337t0jUjAMKykpcXZ2RhDkxIkTIDEkJERfX1+kdsJA2IogyJo1a0SyfTFsxTAsPj5eSkoKQRCR7yQmJoZEIvn5+VVWVnK53MjISCqVOmXKFHDNa2tr09LS0tbWTkxMxHE8IyPD3NxcU1OzoaEBrN7U1GRjYyPy/fc6vT1stbW1FT7/cDic3bt3U6lULS2txsbGHiyeiDNnziAIcv36dQzDhI9hELaam5sLR2NcLvfq1auysrI6Ojoi99KNjY1ycnLz58//4h5XrFgxadIk4RQMw16+fKmkpCQlJeXm5paQkNDa2orjOIfDefPmTVBQkIyMjIyMTHJyMhFV4zhuYWExatQo4e20trZu2bKFRqO5u7uDHwsIW8FNZruI9gJdXV2R60VXwtaGhoaRI0ciCCIStnK5XFtbWyaTmZiYKBAIsrKyBg0aRKVSi4uLhVcvLi62trZGEEQkbMVx/OTJkw4ODr3oEvYdwb6t/w+KogMGDHj48KGmpubly5d7ujgImUw2MDC4fv3677//fvv27Z+hSNBPRVlZ+dixY/r6+nFxca2trT1dnP+jubmZTqeDM35Xutzo6elduXJFTk7u2rVrfD7/23Z68OBB8ByQSOHz+YsXL46MjNy5c2dBQcHWrVv19PTIZDKKogoKCtOnT3/79u29e/dSUlLmz58v0m9BGIqi2traly9f1tbWBmFrF4skLy9vb2+/bdu2tLS0rleEw+H8/vvvI0aMMDMzE1964cIFQ0PDmJgYFRUVCoUye/bstWvXXrp0qaKiAkGQt2/fVlZWHj16FPQrMDc3P3XqVHl5+Z07d8DqMjIy69evX7lyZU1NTdeLBHUrSUnJBQsWLF26tKKiorCwsKeL8//U19cjCGJubo6i6Bd/yBQKJTAw8J9//ikpKUlKSvqG3VVVVZ06dWrhwoXCiZmZmUOGDDE3N8/Kynr06JGnpyeDwUAQRFJS0traOjo6Oicnx83NbdiwYZmZmZ1snMFgrFy5ctKkSa9evfrw4UPXS2Vra1tSUrJo0aKun5owDHvw4IGZmVl6erp4u29KSkpaWtq+ffs8PDxIJJKJicn58+c5HA7R+oth2KFDh2xsbOrq6rS1tcW3P3z48G/+kns7GLaKUlZWlpOT43A44GNlZeXvv/9uaGgILnV6enrTpk1rbm4GS3Ecv3fvnqOjI51OV1BQ8PPz27hxI4qib9++BRny8vKCg4NVVVVRFNXV1Z07d+7XhhckEmnFihVMJvPYsWPgYjlr1iyi397Ro0f19PRSU1P19fUZDMbu3bsRBPn8+fPMmTM1NTVRFNXQ0Jg+fXp5eTmxQR6Pt3v3bjMzM0lJSTU1tcmTJzc0NCAIMmXKlBkzZiAIYmpqClqVQPlDQkLU1dVJJJKuru6sWbOamprAovv37zMYjKSkJAsLCyqVunTpUk9PT1dXV+KrQxAkNTWVQqE8evToq6oMdZ2EhISZmRmXyxUIBAiCsFisv/76y9zcnEajgf/++PHjKysrQWYcx5OSkpycnOh0upyc3PDhw3ft2oWiKPEPqqioAEcOiURiMplTpkwh1hVXXV0dFhamo6MDMk+aNKmgoABBkKKiImVl5ejo6OrqagaDERAQ0MW6SElJUalULpeLYdg3fBUsFuvcuXMTJ04Uvrg+evToyJEjJ0+eXLhwoYSExLZt2wwNDel0uoODw7Nnz1auXGllZeXk5HTv3r0HDx7cvn27810oKyurqqrW19d3PWylUqkRERHS0tKLFi0S6ZosLDQ0lEwml5WVgY/Pnz+/ffv2wYMHT548KZKTx+Pl5+c7OzsTHZpJJNLYsWMpFEpWVhaCIImJiTIyMsLxrrGxsbOz861bt4iLroeHR2NjY0JCQhdrAf0AJBLJ1NQUQRBw+4Rh2OXLlz09PZWVlVEUlZWVdXZ2jo6OJvLX1dXNmzdPQ0MDrBgeHm5qahoSEgL+yxiG7d2718rKik6nMxgMFxcX4r5FBLgiWFpaSkhIyMrKuru737lzB8fxlpYWCwuLP/74A0GQgQMHGhkZsdnsL9YCRdFBgwYhCMLlcr/2G8AwbNeuXSYmJsJxXl1d3axZs+zt7a9evaqjo5OWlubl5SUjI8NkMtesWVNRUaGqqhoXFxcVFWVubh4eHv7F/RoZGbW1tXVyjypu5MiRixcvPnr06JMnTzrKk5CQgKLo1q1bwcfGxkZfX99hw4Y9fvxYPGx99uyZmpqa8A22jo6OnZ3dgwcPwL+vvr4+PDx8zpw58fHxRCcNYf369Zs+ffquXbva2tq6XpG+4dcdktWR3NzcT58+2djYIAiCYdiUKVNevXrl5eXl5OSE43hpaemZM2fk5OR2795NIpHS0tICAgKYTCboB/PkyZPY2FhiU4WFhSNHjmxqanJ3d5eSkmpoaLhw4UJ2dvbNmze/qt+9hoaGmZlZdna2QCCQkBD9l9XW1k6ZMsXc3NzJycnDw6O5uRnchw0ePLha5VsAACAASURBVNjHx6e1tfX+/ftZWVmJiYnS0tI4jp8+fXrx4sWOjo4TJkyoqak5d+6cjIzMvn373NzcioqKnj59GhAQYGtriyBIZWWlv79/WVmZj4+PnJxcRUXFmTNnsrOz7927JycnhyAIl8udP3++jo4O6IY/aNCg2bNnZ2ZmgtURBHn48KGsrGxHfYyg/661tfX169caGho0Gg3H8VmzZt28edPd3d3W1hbH8c+fP8fExFRWVsbGxlKp1LS0ND8/P2Vl5cDAQARBnj9/fu/ePWJTDQ0NQUFBeXl5Hh4esrKyLBYrLi5uyJAhCQkJ/fr1E9lvS0vL6NGj09PT3dzcPD096+vrb968mZmZmZSUJC0tPX78+Nu3b1dWVgYHB9vZ2XWxLhUVFSwWS11d/dtGmD158qS6utrV1VX4y1m3bt2cOXMmTJjA4/HWr18fERHh4eHh5ORUVlbm7++vpKSkq6srJSXl7e09bNiws2fPgm+mIzk5OQUFBX5+fuJ9ZDuhp6d3+PDhqVOnHjx4cOXKle3mcXV1RVEUdAlAEGTAgAFZWVny8vLgTkBYS0tLTU3NwIEDhROVlZVpNFpZWZlAIMjNzdXV1RU+w9BoNCaTmZ6ezuPxwAmEwWA4OTldvHgxODi4R4afQuK4XG5cXByJRFJQUEAQJD4+fvz48YMGDfLz85OQkGhra3vy5MmcOXOsrKwGDhwoEAiWLFly4cIFT09PHx+fsrKyjRs3CgQCEPjy+fx//vln/fr1jo6OISEhOI5nZWVNmDAhKirK399fZL9///33li1bLCwsJk6cyOfznz17NmbMmNu3b7u6uvr7+9Pp9FevXo0ZM0ZfX59MJn+xFgKB4ObNmwiCtDtMqnOtra1nz56dP3++8NClmzdvgmcFioqKT548GTVqlIKCwujRo/l8/okTJwoKChoaGszMzBQVFSMjI728vPLy8tp9RkEU79GjR0wmEwwa6yIKhfLXX39dvnx54cKFDx8+bHfIsrq6+vTp083NzcFHOp2ekpIiPIKTgON4Xl6eqqqqvLy88C4MDAxycnLYbLa0tDSDwXj16pWmpibRRiYCRdHg4ODdu3fn5uaC+4RfSI90TfgZgL6tx48fL/qf/Pz8S5cuKSkpSUpKJiQk4DheXFxsYWFx4cIFYi0ejzdmzBhTU9OmpiYulxscHCwlJUX0R6mpqQHtoGlpaTiOz5w5U1dXt7S0lFg9NTWVSqWeP3++3SKJ9G0VNmvWLHV19ZaWFvz/Dsk6cuQIgiDLly8HvY4wDAsPDwcnGmLdrKwsRUXFrVu3YhhWXV09YMAAZ2dn0DdIIBCsWrUKRdHc3Fz8//ZtxTBs2bJlFApFuPtvZGQkiqKnT5/GcRwE6KGhoUQv8traWl1d3XXr1oGPLBbL1dWV6HL3s+mNfVv/+usv4nAtLCyMj4+3sLBAUXTPnj04jre0tNja2u7du1d4xSVLlkhKStbU1AgEgilTpsjKypaUlIBF9fX1WlpaCIIkJSVhGLZx40Y5ObkXL14Q6+bl5dHp9K1bt4qX5+zZsyQSiejlieN4dHQ0OLmDQzE4OLhfv37tfsOgb2tkZCRRl4KCgujoaG1tbTKZLNyjFOhK31aBQBAWFibSX/DZs2eKiorV1dX4//qDbtiwARyNbDZ7xIgRCIJs3LgRZL5165a5uTkYOwX6tp46dUqkhCoqKpKSkklJSWCVjoZkgU6lOI7v2LFDVVUVnAFGjx6tqKhIjKLo4pCs/Px85P/2bS0uLlZRUdm9e7dwtubmZlVV1R07dnA4HG9vbycnJ5FBYDNnzpSRkQEnEKJsenp64MvpjXp731YLC4vc3FziAHv79u2kSZMQBPHx8QFj/hYtWmRjYyPcIfL169c0Gu3SpUvgbwaD8ffff4NFGIatX78e+V8nyKysLBRF161bR/T1xDBs3Lhx5ubmImfjjx8/qqmp+fv7EzlLS0tVVVWNjY1BZ+g9e/Yg7Y2dAn1bDQ0Ns7KyiFpkZmYuWbJEQkLCzc1NZARSV/q2ZmdnS0pKxsXFESkCgWDo0KHh4eEYhrW0tNjZ2Q0YMIDopR0XFwfm/6mtrQUpJiYmxPXawsLC29u7SEhKSgp4+EP0ne1oSFZoaCjIIDyoIDk5mU6nL1u2DHxXXRySheP45MmThfu2CgSCwMBAJycn4ZGjAoFg/vz5BgYGdXV1wus2NTWZmpqK923Fcbyurk5JSQk8hv2l/Opha7suXbrU7jCLsrKygwcPMplMELYWFxdTKJQtW7YIdwPftGkTCFu5XO7AgQPDw8OFt8DlcocOHRocHNxuJNdJ2Dp79uyOwlYGg5GZmQk+Njc36+joLFy4ULhIOI4vXry4f//+LS0tjx8/RhBE+LzAZrOLi4vBRU44bOXxePr6+qNHjxbeVENDg6GhIfgJxcbGksnk27dvC+8oJCTExsYGrPLq1SspKalnz561W6Me1xvDVvFjFUXRtWvXigycB6qrq6OiokxMTEDYWl5erqKismLFCuF/KJiAKSkpicfjGRoazpo1S3gLGIYtXrzY1tZW5ArE5XL9/PwsLS2Fx47w+Xzw5AF8q18MW8XrIikpefr0afGfRlfCVjab7eDgEBwcLFy7HTt2DBs2jM/n83g8Hx8f8HCQWApi0xs3boCP796909XVBVfEjmYSoNFoZ86cIXbxVWFrSUmJpqamnZ0dWP37hq0cDofJZHYSti5atEgkbL158yaKos+fP/9iGX5OvT1sbffIGTJkSFNTk/gqLBbryZMnEyZMIJPJly5dAm0Kurq6lZWVRB7QEwycnA8ePCglJSVyT5KcnMxgMN69eyeceOzYMQRBXr9+LZx44cIFEokExuZ3Hra2WwtjY+PCwkKR/F0JW+/cuUMmk4XHBJeWlhobG+fl5eE4furUKZGgtrGxkU6nBwUFEddrR0fH/fv3g787esoXGBgI+vngXxm2Yhg2depUKpX6+PFj/HuHrTiOr1q16qvC1ra2NiaTGRYW9sUC9DG/eieBRYsWWVpagr8pFIqmpqa5ubmioiKRIS8vb8uWLc+ePSspKSE6zYCHOLW1tTweD8w8QOQnHt61tra2tLSsXbt27dq1Ijt1dHTkcrntXrk70tjYSCKRxHsIIAhCpVKJyW7a2tpKSkr27t27d+9ekWxkMpnNZldVVcnIyIA2NmJ1HR0d8c1iGMZisbS0tIRrJyUlZWlpWVZWBvrfkEgkkccl48ePDw0Nzc/P19fXv3fvnqamJuhuAX0XY8aMAeNSASaTaWJioqGhQfyPKisrw8PDk5KSiouLiV7UYMqY2traqqoqkcPVxMQE/CEQCJqbm48dOwYuY8KkpKRaW1uJmQ4RBGGz2WVlZcbGxmBgBEAmk42MjEAE3JVje/78+cSxQSaTtbS0TE1NxXsjdBGYdkNkiqv09HQ7OzsSiVRUVPT8+fO1a9cKP3wkk8lSUlLGxsbgY0VFBZ1OF+6fsGTJEuKRn4SEhJaWlpmZmcizRX19/dzc3K48Z9fW1l69evWCBQsOHDgwd+7cb6smgiBUKlW8EwWbzQZ99VAUlZGRYbFYIhnER19pamriOA5HZfUUPT29lStXEv9KBQUFAwMDfX194iTP4/GOHTt27ty5vLy86upq4XVxHC8qKlJXVxd+yiwjIwN6CCAIUlhY2Nra2u6vqbi4mMiG/+9uSuSBvqmpqaSkJBiM1TlNTc01a9YQcwZLS0sbGBgYGRm1O03VF3369EkgEBBdZRAEKSgoIJFImpqaCIJcu3bNzMxMeGo88GN3cHAgfoCtra3CPUGtrKxA31xASUnJwMBg4MCBIr0dHjx44OPj88XioSgaERHx/PnzJUuWdNLJtSuEz5wAhmFVVVVftREymUyhUOrq6v5LSXqjXz1s9fb2Fo4DRDQ2NgYFBVVXV7u4uHh5ednb2zs5Oe3btw+0WeJfGpaB47i9vT0RGRB0dHS60kmIwGazCwsLFRQU2j0XoChKbA0UydLSUryzC4qikpKSXyzz1xKpiLOzs4KCwsWLF1euXHnv3j13d/dvO39B7bK2tp4+fXpHSzkcTnBwcFZWlouLi52dnZ2dnbOz8/3799etW4cgyBfHOeE4bmxsLPxeAILIVPbfhaenZ1BQ0PfaGmjCFDka6+rqXFxcUBT9+PFjS0uLcNVwHH/06BEI+kHKgwcPBgwYIHw58fHx8fX1/V4lRBBk6tSp9+7dW7Zsmaen5zdvRFpaGjSkCSdyOBw+n6+hoUEmkzU0NHJzc9lsNhGjgwesNjY27ca731wS6L9QUlKaPHlyRzd4OI5HRkb+8ccfTk5OQ4cONTAwcHR0VFdX9/LyAhk6/zmDURAhISHip9/v+yoZBQWFSZMmCd/T/hdgvK/wTWBVVZWsrCz4lsrLy7W1tYVrVFdXJxAIiKEU5eXlVVVVwh1btbS0OjlhfgNVVdW///572rRpW7Zs6fpgUxEoiqqqqqalpXE4HKI6YEo+JpMpHtF2TngM9C/iVw9bO3f9+vWsrKxnz54RI/64XC7x4g1lZWUKhZKRkSE8RIOYu4ROp0tJSdnZ2e3fv/8/FuPp06cZGRnz58//4kAQOp2upKRkaGh47NixdiNj8Ny2oqLCwMAApNTU1BgZGf3zzz8zZ84UzkkikaSlpcvKynAcJ/bb3Nz88uVLOzu7dtt9EQRRVVUdOXLkmTNnRowY8f79e9DdCvoxMjMzU1JSLl68SJxP8f91/EAQpF+/fioqKunp6cR7bhAEyc3NBX+QSCQpKSkjI6MTJ0588TCj0Wja2tp5eXksFosY+sPn8zMyMkQaLH8YCQkJSUlJkVZGEokEUsBvQXiIcUNDw759+4YPHw6adiorKy9evLh58+ZuLSSDwdi5c6eZmdlff/31zS9DkpaWZjKZqampwonv379vbW3V0tIikUiOjo4HDx6sqqoimuIaGxtzc3OHDBki/LMFU0+0+44iqMc1NTUdOXJk5MiRV69eJX5Qz58/B63jYK7G1NTUxsZGokm1paUlKysLtJJoaWlRKJRt27YJP1gTB+a3+fjxY0VFhXAfpJSUFDabLdyU+2OAo1F4jD94Z55AIAAz+QjPP4Xj+NWrV3k8HhhPwuPxVq1aZWFhId5O9H2NHTs2NjZ206ZN7T6l7AoURa2srI4cOVJeXk68GaulpeX169d+fn5f29DzVWPL+gY4hrQzoPld+JnFzZs37927x2azMQxjMpn+/v7//vsvmC4RQZDW1taoqCjwN5VKtbOzu3Tp0ps3b4jVW1pavL29weTwXSxDY2PjvHnzlJSUFixY8MXM0tLSoaGh169fFx4hzuVyZ8+e7evr29bWZmpqqquru2HDBtDKguP4yZMn6+rqxFtnyWRyQEBAbGzs3bt3icTLly+XlpaOHDmyo7AVQZCgoKCPHz8eP36cyWR+8a130HfU0tLC4XCEb9YfPXp09OhRBEEwDFNTUxs2bNihQ4eIw7WlpeXgwYPgbwkJicDAwDt37sTExBCrs9nsGTNmjBkzRmSOFQqFMmnSpMzMzKtXrxKJMTExDx8+nDRpUnc0zX6RhISEvb39x48fha95qqqqmZmZGIYNGDBAS0srKioKtFFxOJylS5dWV1c7OjoiCPL582dXV1cweVB3l3PAgAF79ux5+PDh9evXv3kjHh4eKSkpxB0ymDBBQ0PD0NAQLJWVlRV+S9nVq1cLCgpEJg3IzMyUlpbu6NVrUM/icrmtra2ysrLEv4zNZi9evBhBEA6Hg6JoSEhIVVWV8Pxo165dI/728PBgs9kbNmwQboq7du2ahYWFyKSwvr6+ampqYAwGSCkrK1u1apWxsbGenl73VbBdenp6EhIStbW1RIqmpmZVVRWYotHGxiY9PZ2YJO7hw4erV6/W1tZWUlISCAQRERFRUVHh4eHi72r+vshk8saNG+l0+vz58795I2ByITCiGkhISCgvLx8xYkTXZynh8XhtbW3fHD33XrC1tTMjRozYtGlTYGCgs7OzhIREaWnp8+fP+Xx+QUEBl8uVk5NbtWrVrVu3XF1dwbPIJ0+eFBcXE6tv2LDh5cuXnp6eQ4YMAXPBpqWlFRcXb968uaNDMy0tDUyeivzvqcHTp09BeCH+jnVxKIquXr36wYMH48aN8/DwUFVV5fF4mZmZhYWFN27coNFoNBptxYoVs2fP9vT0NDQ0rKuri42NnTVrFniwwmQywSuXvLy8Vq5cuXjx4piYmHHjxvn4+MjLy1dUVCQmJjo6Onb+cMTc3FxJSenEiRNhYWFgnizox7C0tFRTUwsNDR08eDCNRquqqnr8+DGbzaZQKGw2m0QiLV68+MqVK46OjoMHDyaRSM+ePSOuYSiKLlu2LD4+fuLEiZ6enioqKnw+Pysr6927dzdu3BB/lDl69Gh7e/t58+ZdvHiRyWTW19fHx8cbGRmtXLmyRyZUkpCQGDx48KFDhxoaGoj2J1dX17Vr17JYLFVV1YkTJ+7atau2trZfv37p6elkMplMJh8+fDgxMTEpKUlDQyMyMrK7L3gIgqAoOnPmzOjoaJGxIMePH3/27Nn27duFO9Z3ZNy4cQcOHLC1tfXx8aHRaDk5Oa9fvz5w4ABod1FXV/fw8Pj7778TExN1dHRqa2sTEhKcnJyIyZgRBMFx/O3btyYmJqDXIPSzUVRU9PT0PHXqVF1dnaqqaltb28uXL8HFBTS4WllZBQcHr127NjExUU1NDZycidXNzMyWL1++ffv21NRUc3NzMpn8+fPn5OTksWPHilxHmEzmzJkzt27dam1tbWFhwefznz592tDQcPbs2R9/9tbV1aVQKHl5ecSseQYGBnQ6/d69e5MnTw4LC4uOjvby8nJxcamrq3v37p2RkVFWVtbvv/9eVFT07t278+fPEx0GupW2tvapU6emTJkinJiTk7N9+/YxY8aAKUo6p6WlNXz48P3796empurp6RHnz8GDB3e9GDU1NW1tbfb29l9dgd7uR48B+2mIv9y1XadOnTIxMZGQkJCRkbG1td26devx48dRFE1PT8dxHMOwu3fvOjg40Gg0eXn5YcOGbdu2TU5O7v3792D1rKwsf39/NTU1FEX79evn4+Mj8gI6YSIjH8E4FV9f3/j4eOFVRGYSUFRUFH4vJY7jZWVlkydPBhckeXl5V1fX69evE0u5XO6///5rampKoVBUVFRCQ0OJsasNDQ1eXl5UKnXQoEFgj3l5eYGBgaD8urq6YWFhxODx2NhYCoUi/gZtDMNWrVqFIMj9+/c7/257Vm+cSUDk5a7i7ty5M2jQIBqNRqVSLSwsli9ffvXqVRKJBIbhYxiWkJDg6OhIo9FkZWV9fX0PHDiAIAjxTywpKZk2bRp43YC8vLybm9u1a9c6enlpdXX1jBkzwFst1NXVJ0+enJ+fTyz94kwCXX+5aBdf7lpQUCAvLx8fH0+k5OfnKysr79u3j8/ng0nLFRQUlJWVZ8+e/enTJ3d3dwkJCW1t7d9++40YWQyIv9y1XV15uSsxk4Cw9PR0VVVV4ZkEpk+fTiKRxHOKzyQA3L1719XVVUpKSkJCwsDAYP369WDWJKCiomLq1KlgnE2/fv1CQkKE/zU4jnM4HDMzs2XLlnVewZ9Zb59JQGSyNnGfPn0KCAhQUlIik8na2tr+/v7Pnz8Hs6uCDLW1tXPnzlVXV0dR1NjY+J9//jE1NZ0xYwY4IHk83o4dO8zNzRkMBolEMjY2XrFihciUIACPx9u1a5epqSmZTJaRkfHw8Lh16xZxxel8JgGRl7t2oiszCbDZbBcXlxkzZghf7+bMmWNubg6uO5cuXQJXLltb28TExPPnz8vLy8vIyHh6esbGxopsTfzlruK6+HJX8RMvmA0AEZpJID4+HkGQLVu2iG9EZCYBoKKiYsaMGWBArZKSUkBAgPj0C3inMwmcO3dOWVm5vLy88zr2Pb9u2Prf8fn84uJikekqTpw4oaam9vHjx54qVY8DYaumpqZIMP2z6V1h63/H5/M/fvwo8k+5ePEig8EA88v0AV5eXiKhWEREBIqit2/f7nzyYIFAEBkZKSUlRczJ2rfl5+crKCgIz+7c6/TesPW7aGhoKCsrEw5l6uvrtbW1lyxZ0oOl+u/u378/YMCAz58/Eyk5OTkMBmPcuHHC0+216/Pnz/379582bVo3l/Gn0NbW5u3tvWTJko5awfow2Lf12zU2Nnp5eQUEBBA9/3Acv3DhgoaGxvcdrdm71NTUHD58eN68eV153An9MG1tbSNHjvT29ibGLQkEglOnThkaGn7D+2x+Tn/++eeNGzdaWlqIlAULFvj7+wcFBY0bN66jF9UWFBR4enrOnz9/165dX/WQrpfCMGzfvn0jRoz45V6u04ecP39eV1dX+PW8qampHz9+FH5LXG/k7e0tJSV169YtIsXQ0PDmzZtXr161srK6efMm3t6wkLa2NvDeZl1dXfCG8z4vJyfnxYsXCxcu/Ko39vUNsG/rt5OXlx8/fvzWrVuHDBmir6+P43hubm5KSsrhw4c7GbHUh8XHx0dFRYEB5hMmTPgFf04/MykpqcDAwA0bNgwZMsTAwADH8Q8fPrx8+XLv3r3Cgw57tSFDhlhbWx86dGjp0qXg8KPRaBcvXty+ffv27ds1NTUtLCz69+8vJSVFIpEwDGttbc3Pz3/37p2GhkZMTIyvr++vcNAWFhZeuHDh8ePHv+Zpqm8YPnz4pk2bJk2aNGTIEBqN1tTUlJSUZGJi4uHh0dNF+0/IZHJ4ePjmzZsnTZoEutSjKOrl5ZWYmAhuQTU0NCwtLZWUlCQkJHAc53K5lZWVb9++bWlp+eOPP1auXPnjJ0D48QQCwdGjR+fPn/+L9k3v0bbeXq+1tXXZsmVgjmgGg2Fra3vy5MlO+rr1bQkJCQwGQ1dX99y5cz//k4tfrZMAjuMtLS0rVqwwMDCgUCgMBsPa2vro0aPiXaZ6tZycHHNzc+G3BwEFBQUrVqzw8vLS0dEBQ68kJSX79+8/dOjQPXv2iLxTqg/j8/nLli3buXNnbz9N/eKdBHAcf/To0eDBg8G7b7S0tKZOnSr8bL33EggEc+bM2bt3r8hFhMPhnD59OiAgwMzMDDzKAxOg2tvbz5kzh3hV5K8gOTnZx8cHvKH9F4Ti33v+eQjqFUYM842+cf2r3lUGQdBPwtZq0KEjR+zs7Xq6IBAE/VCwbysEQRAEQRDUC8CwFYIgCIIgCOoFYNgKQRAEQRAE9QIwbIUgCIIgCIJ6gW4cksXlcjeHb+Jxud20fQj6L3JycvQN9CXIcA4gCOplcATJycrS0tGWkZbp6bJAEPTVtHS058yd+23rduM1m0wmm5ubcTic7ttF33A2KsrLy5up0UemfO8tkpMf+wf4UyiUni7Iz+junTuKioqOTk49XZBe71zUWXcPd00trZ4uSN+CIw/ux9o7Oujo6PR0UX5G2dnZ6W/fTpg4sacL0uu9e5f1sazM18+3pwvS16ipqX/zut0btgaHhHTf9vuMB/cf+I4Ybm5u3tMF+bWcP3tu3IQJcAKsdhUUFKirMydNmdLTBen1Htx/MMzPzwq+j+p7+3fXLp+hw+AEWO26e+dOXW0d/P3+d3dv33nz5g38Jn8qsG8rBEEQBEEQ1AvAsBWCIAiCIAjqBWDYCkEQBEEQBPUCMGyFIAiCIAiCegEYtkIQBEEQBEG9AAxbIQiCIAiCoF4Ahq0QBEEQBEFQL9C7XxFUV1d3584d4RQSiaSiomJkZKSpqYmiKEhMSEgoLy9vdwteXl4aGhqlpaWPHj2ysbExMTERyZCenl5QUDBy5EhJScnuqEIfwOfz79+/LyMj4+bmhuN4QkKCQCDw8fEhkURvinAcf/HiRU1Nja+vb9+e5z82Nra6ulo4hU6na2lpWVhYEDPFfv78+eHDh+2urq2t7e7uLhAIbty4IScn5+3tTRzMQENDw61bt1xdXfX09LqpCr1FU1NTTEyMg4ODgYGB8N/iOQUCwcOHDykUiqenp/jBCXVdQ0MDiUSSlZXt6YJ0l/T09IyMDOEUCoWipaVlYmKioKAAUsBvsN3VFRUVfX19cRx/8OBBc3Ozv78/jUYTztDW1hYdHW1paWlhYdFNVegtuFzutWvXBgwYYGdnx+fzr169ymQy3dzc2s2ck5Pz7t07f39/eDn+L3AcLyoq0tXV7a2nQbw3e/36dUf1ioiI4PP5IJufn19H2W7duoXj+NWrVxEEsbGxaWtrE9nFunXrtLS06uvru68WUydNzsjI6L7td7eWlhYrK6sxY8bw+Xwul+vj4+Pq6spms8VzCgSC0NBQExOTpqamH19OEcOHDmOxWN20cUdHx3aPNwMDg7y8PJAnLi6uo8MyKCgIx3EWi6Wuri4rK/vy5UuR7YNr6tmzZ7up/BvXrz8SebibNv595ebmIghy8OBB4u9Dhw61m5PNZjs7Ow8dOpTL5f6w4k2dNDktNfWH7e4H+PDhg7q6empPV8rG0urVy1fdtPH169e3+8NUUFBIS0vDMAzH8czMzI5+v4MGDWKxWK2trba2tiiKXr58WWT7FRUVCIJs2LChm8p/5/bt32eHddPGv6+GhgYZGZmFCxfiON7a2iorKzt+/PiOMu/cuVNZWblbL8ci7ty6/feGjT9sdz8AhmHh4eHe3t4/8jT4ffXu1lbg0KFDQ4YMAX/jOF5SUjJjxozVq1fr6ekFBweDdFNT0xs3boivq67+/94wlpaWtmHDhi1btvTWW5CfgISExKlTp3Ach3fDtra2Fy5cID5yudyoqKgdO3aEhYU9ePCAaGw+efKkq6uryLrS0tLE301NTWFhYW/evCGTyT+g2L2anp7ehw8f+vXr19MF6cvevXv36dOnni7Fj/Ds2TPiWMIw7P79+8uXL3d1dX3//r2GhgZIP3DgwNChQ0VWpFKpNBqtra0NQRAcx+fOnWtlZHtVVgAAIABJREFUZaWvr/8jC98b0en0tLQ0BoPR0wXpy3g8XkJCQq8OcvpC2KqmpjZw4EDio76+flxc3ODBg8+ePUuErVQqVThPu/T19ffv3z9x4kT44OaboSjKZDJ7uhQ/BTqdLnLIbd26tb6+/vTp02lpafb29iBRQ0Oj8yNz4MCB796927Zt24oVK2Dk2jlJSckv/swhqIt0dXWF2zX09fUZDMasWbMeP348YcIEkKiurt75IaelpVVXVxceHn7y5En4++0ciqL9+/fv6VJAP7teHHF3Ql9fX11dva6u7qvWWrdunbS09PTp0+vr67upYD+t2bNnGxgY8Hg8IgXDsJEjR3p4eHC5XARB3r9/v3LlShMTExRFFRQUxo4dm5CQIL4dHo83dOhQNzc3DoeDIAifz79z546Xl5ekpKS3t3dKSgqO4z+sUj8hFxcXNpvd0NDQ9VXGjx8/bty4tWvXinS26zNwHB8yZIibmxuGYUQii8UyNTWdPn06eCr0+vXruXPn6unpoSiqpqY2a9asN2/eiG/q/fv3KIpGRkaCj21tbWfPnrWxsaHT6UFBQR8+fPhBVfqZHDlyREND48OHD1u3blVRUVFTU/vzzz8/f/4MltbW1qIoeubMmS1btigoKDg5OTU0NAgEgri4uMDAQCqVqqKiEhYW9u7dO/DLnTdvXmBgIIIg1tbW4k8J+jYURe3t7VEUFem23jkzM7MFCxZcuHDh8uXL3Ve2nvXvv/+SSKT8/HzhxFWrVmloaDQ3NyMI8u7duz///NPIyAhFUXl5+YkTJz59+lT8WsBiseTk5IhbAgRBkpOTAwMD6XS6tbV1bGzsL3j5aG5uBodQVlbWqFGjyGSyg4PDpUuX+Hw+yLBjxw4LC4vc3FxbW1tlZeWoqCgEQerq6nbu3GlmZkYmk21sbA4ePNjU1IQgSENDQ//+/RMTE+Pj4yUlJa9du9aTdftWfTNsra6urq6u/toRAwMHDty/f39mZiZ4zN1NZfs5hYSElJSUCIcCTU1NKSkpYCxabW2tm5vb/v37GxsbNTU1GQzGvXv3xowZU1BQ0Plmr1+/PnLkyNTUVBUVlezsbB8fny+u0rdlZGSQyWRlZeWur0Kj0TZv3kylUpcsWdLS0tJ9ZespKIqGhITk5OSUlpYSiSUlJUVFRQEBASiKZmRkuLm5nT9/nsfjaWpqkkikc+fOjRkzpvP7UhzH9+3bN3Xq1JKSEmVl5adPn3p7e4Nz968Gw7CdO3du3bpVUlISRdF9+/Z5eHgI3ztduXJl165d0tLSysrKDAbj2LFjPj4+CQkJ/fr1o1AoZ8+etbe3z87ORhBEQUFBSUkJQRAVFZVfsDPGhw8fcBxXVVXt+iooiq5evdrOzm758uWtra3dV7YeFBQUxGAwkpOTiZTm5ua7d+/6+vpKSUnl5OS4ubkdOXKkpaVFU1NTSkoqJibG1dUV9ETvxJs3b0aNGhUXF6ekpFRZWRkYGNhuW8mvoKamZvz48a9evWIymR8+fJgwYcLevXuFl06ePLmiooJGow0YMKC1tdXHx2f58uXV1dVMJrOsrGzBggWhoaECgQDc9lOpVCqVqqGh0Uv7Y/S1sFUgEKSmpvr4+FRUVEybNo1Iz8rK0hcj3mAzevToESNGrF69upPBXn2Sra3tgAEDIiMjBQIBSImPj6+urgbdto4cOdLa2pqcnFz2PwkJCWw2u6OBtEBVVdXKlStdXFzy8vLKyspKS0uvX7/ebiPZr6CxsTE8PPzQoUOOjo7m5uZE+vTp00UOyxUrVoisq6Ojc/bs2adPnx46dOjHlvoHGTp0KJlMvnTpEnG7eOXKFRRFHRwcBALBnj171NTU0tPTicPv/PnzpaWlL1++7GSb79+/37x586RJk4qKisDht3Xr1pycnB9SoZ9LZWVlUlJSfn4++B5OnjyZl5d38eJFIsPt27fj4+PLyspiYmJaWlr++ecfR0fHwsJCkP/x48coioaFhbW2tm7atOnYsWMIgsTGxl6/fr3n6vSjsdnsU6dOhYaGIgji4uJCpM+dO1fk9wtao4XRaLSIiIiysrLQ0FDhJ1p9hpqamqmp6bVr14gmwBcvXuTm5s6YMYNEIh09elRBQSErKwv8eEtLS5OSkqhUaufXgtbW1vHjx+vq6mZkZIAVExMT3759+0Mq9NO5cuXKuHHjSkpKysrKioqKPD099+7dC1qyEQT59OmTs7MzWOrk5HTmzJm0tLQDBw6UlpaWlZWVlJSsWLEiJibm4sWLcnJyz549c3Z2dnV1LSoq8vX17dl6fZu+ELYGBgai/yMhIWFjY5ORkbFx40Z/f38iD4fDyRcDuswLk5SUPHDggKKi4po1a8DD8V+EvLx8YGBgTEwM6CDBZrMjIyO9vb3BMIKVK1e2trZaWVmRSCSBQFBcXPz8+XMKhdL5KTglJeXjx49btmxRUVFBUZRCobi7u3t6ev6gKvW05ORkVIi8vPy6det0dXX3798vPPlXRUWFyGFZVVUlsikURQMDA4cOHRoREdHJ+OXeS0tLy93dPSoqCvzoGhoaTp8+PWnSJBUVFTKZfOLEiaKiIh0dHRRFuVxuXl7e27dvcRwnrpHtAnNdrV+/XkZGBkEQKpUaEhLya/Z8xXF88+bNxM8wICDAwcHh8uXLbDYbZPD19TUyMkIQhEQiPXz4sKioaPPmzUpKSiiKgoeMu3btev78eVFRUY/W40djMpnE75dOp4eGhjIYjLi4OGI8FoIgnz9/Fvn9Cj80IDg5Oa1fvz46OvrBgwc/sAY/iKSk5PTp0x8/flxYWAhSLl++bGBgYGtriyDIrl27CgsLtbW1URTl8XiFhYXJyckYhhFNJO2qqKgoKytbtGgR6BpEIpEcHR2nTJnyI+rz89HX1583bx6YRk1OTm7t2rWg8QgspdPpM2fOpFAoKIq2tbVFRUU5OjpOnjyZSqWCpcuXL7e0tLxy5Urn58zeoi8MyXJ3d9fS0gJ/U6lUKyurkSNH6urqCuextrbuYjufhobG6tWrFyxYcPDgwT/++OP7F/enhKLo6NGjt23blpqaOnTo0PLy8vj4+KNHj4JJRnEcT0tLi4qKevjwYVZWVhe3WVhYKC8vb2pqSqSQyWQXF5df5OKnoqIiPMSYyWR6eHh4enqKzOD44MEDHx+fL26NRCLt3r3bzc1tyZIl9+7d+/7F7VFkMnnMmDF3794tKSkxMDDIzMz8+PHj1KlTwRAWDMOePHkSFRUFmgy7uM0PHz6oqalpamoSKXQ63d7evrKyslvq8BNTVFS0sbEhPjIYDHt7++vXrxPPrHV0dMDUHziO5+bmamhogCgWAM3eVCpV/IaqbxszZgwxy7KioqKzs7Ofn59I37Nr166JN6+KI5PJ8+fPP3ny5OLFiy0tLfvY2CwURQMCAsLDw+/cuWNgYMDhcJKTk/38/EDYhON4SkpKVFRUQkLC+/fvO49WCR8/fhQIBMbGxsKJNjY2x48f75Y6/NxcXFzk5OSIj/r6+srKyllZWaBtTlZWlhgJzWKxUlNTw8LCpKSkiPyysrLGxsYPHz7k8/m9eg4BoC+ErYsWLQoICPiOG5w9e/a9e/c2btz4fTf7kzM2NtbU1Dx37tyQIUOSkpIkJCS8vLzAonfv3rm7u6MoKi0t7eHh4e/v7+bmRszS0BHQFis8Tz6Kon14inIRhoaGoHf89zJw4MDVq1cvXrz41KlTxEQEfYazszOXy71y5cqqVatu3rwpLy9vafn/sXefAVFcfdvAZ7bvwlKWJqAioiIoigVb7LGiYElijL1j77EksUWNJXajRIwae9cEC1GxEdttr1giUgQEBWGBZfvO+2Huex9eLAFkOcxy/T45szubi8mU/5w5M6c++1FkZORXX31la2srk8lCQkJ69Ojh5+dX8Ebte717t4SmaYVCUQHLVolEUrCBn2071Gq1JpOJPYex7TTspwzDFBrbgqIoGxsbKzjbFdf69esLvkngEzk7Ox89erRVq1bLli17tyMQ17m7u9epU+fQoUOTJ0++fPlyfHx8aGgo+9HJkye/+OILiUQik8natm3bu3fv1q1bf+jN1mbsa9cLbYoFS7EKRSKRFNwB+Xy+RCLRarVsryr2PrP5U51O995duGyiloEKdyQqCoFAsHTpUp1ON2zYMGvtRP8uuVw+duzYyMjIxMTEI0eONG7cmD1ka7XaadOmeXt7s52Tzp8/P3nyZIVCkZyc/PEf9PDwUKvVBZ+6ZRim6K1l8K7hw4d36tRp0qRJ1rcaPTw8BgwYsHfv3pSUlDNnznTr1o09zmZnZ8+aNatDhw5s18zIyMjhw4cX5QerVKmSk5NT8CE2o9H47NkzS/0B5Vh6enrBx9d0Ot29e/eqVav27pmMpmk3N7e0tLRCb1O5f/++Wq0u+DphKIEGDRoMHTo0IiLi5MmTpLOUvoEDBz59+jQuLu7333+vU6dOUFAQO3/p0qX169d/8eJFcnJydHT02LFjbW1tC7425L3c3Nx4PF5GRkbBmf960rFWKSkpBbvkpaamJicn+/r6vlueikSi2rVrp6SkFOwPoNVqnz59WqNGDeu4+LSGv8ES/Pz8Vq1aFRMTU7oNZuUZTdPs8CRHjhy5ePHi+PHj2dvZer0+LS3N09PTzc3NfNN248aNBoPh431bmzZtKpFI5s6dy74Mi6Ko9PT0Q4cOlcHfYq2kUunSpUtNJtPkyZNJZyllfD5/0KBBz549O3ToUFxc3PDhw9kjLHvA9fb2dnR0ZOfo9frVq1dT72tPLahDhw4ZGRlr1641nyAfPXpUMZ9ENhqN7Mhh7OTdu3fPnj0bGhpqvgNeUKdOneRy+dq1a83fz8jIWLRokaenZ6GeV1BcNE0vWLDA19fX+lpbKYr6/PPPRSLRoUOHoqKievbsab7IUSqVzs7OCoWC3X81Gs2qVas0Gs3HTx9eXl4uLi5r165VKpXsnKysrG3btln6ryif/vrrL3MvR4Zhtm3b5uLiYr4dWpCtrW1ISMiJEycKPrF6/Pjx//znP1Yzpro1dBKwBJqmBw4cuHPnzsuXL5s7zlq9ypUr16hRY/78+fb29sHBwexMqVTapk2bDRs2TJ48mb2Te+DAgVOnTlEUlZaW9pGLZm9v74kTJ86ZM0ej0fTu3TsvL+/XX3+1sk5dZa9OnTpLly6dPn066SClr0GDBo6OjnPmzPH29jY31bCb4tatW9l+0kql8vfff79x4wZFUR8fq6lx48YDBw5cunTpq1ev2rRpk56evmHDBgcHh7L4S8qfw4cPq9Xq9u3bv3r1atWqVW5uboMHD363qYaiqOrVq/fq1Wvr1q0ZGRk9evTQarW//fbbw4cPIyIiXF1dKYpycHAQCoW///57WlraR8bNhvdycnJavHhxnz59SAcpfR4eHh06dPjxxx81Gk3BDcPf3//YsWNTp05t2LBhfn7+/v372avHlJSUj/yanZ3dsmXLRo0a1b179+HDhzMMExERUUGGZ3uXVCodMGDA2LFjXVxcoqKiDhw4MGbMmEqVKr37TR6PN27cuF27dvXq1WvixIne3t5Pnz5ds2ZNrVq1xo0bx3YnsLGxuXbt2o4dO9q1a8fF8R1Qtn6QTCbbuXNn8+bNSQcpO3w+v2/fvt9++22LFi3MJ3g+n798+fKbN29u3bo1PDxcLBbL5fLw8PDdu3ffv3//408mzpgxIzMzc/PmzceOHZNIJMOHD7ezs3vvKLtQRDweb8KECQcOHLhy5QrpLKVMLpd3795969atbLMNO1MikURERLRo0WLFihUGg0EsFtvZ2e3Zs2f+/PmPHj36yFUTn89fuXJlVlbW3r17t27damNjM3/+/MuXL1ecbj8FhYeHjxo1aufOnXw+v2bNmseOHSv4sFpBNE2Hh4cLBII9e/b88ccfPB5PoVCsWrXK/D7BgIAAT0/PX375JTo6uuD/KSiibt26jRgx4pdffiEdpJTRNN27d++dO3f6+/v7+vqa569duzYuLm7Dhg06nU4ikTg5OW3ZsmXmzJnsS3A/8msDBgxIS0tbtGjRsGHDRCJR7969R44cOXPmzDL5a8qXDh06+Pv7z507V6VS2drajhs3buXKlR/6ctWqVU+fPv3ll18uWrRIq9VKJJK6deseOHBAoVBQFMXj8YKDg8+ePTtixIhly5bNmDGjDP+O0kFz+r36Wq02KSnJ3d39452uUlNTDQZD1apVP/SFvLy8V69eValSpdBT3hRFJScn6/V6Ly8vy3UKGTxg4PSZMwq+y5MgtVqdnJzs6OhY6JX4Wq02IyNDrVZLJBKFQiGTydLT0/Py8ry9vSmKSk5OFgqF7MVfamoqwzCenp5sWw7DMJmZmUql0sbGxtXVNSsrKy8vr0qVKsQ72XTr3OXQH0ffe5/007F9sD5UGbDy8/NTUlI+8s5nhmESEhLs7e3Zw01BWVlZGRkZlSpVYt/uVOp+nD/f3d1jZNgoS/z4RyiVytevX7u6uhZ8bJaiKLaTtE6ns7GxUSgUIpHIvJnp9frExER2EZ1OZ/43u6DRaMzIyMjNzbW3t3d2dmbvD7AvNiqbv2jwgIFTpk0NbNCgbP5z74qIiAgLC3v8+HHVqlXT09MFAoGrqyv7iDdFUUajkX3jR6GxA0wm09u3b7OzswUCgZOTU6HNLCcnJyMjQygUVq5cuczWZCGNAxuER0QENQmyxI+/ffs2MzPT29u74JMuhbAb20fOPgzDJCcn8/l8d3f3QmuJPcw6OTm9u2uXipMnThz7MzI8YpMlfvwj2HVia2tbqVKlgn+yRqNhTx8ymUyhUEgkEvP+yzBMfHy8nZ2di4uLyWSKj4+3sbExtyMyDJOdnf327VuxWFypUiX2OFCtWrUyO32cPH7i1q1bc+bNLZv/3Ltyc3ObN2/u7++/a9eu7OzsnJwcBwcHc48LiqKysrKys7OrVq1a6E6mRqPJzMxk1zk7boj5I6PR+Pr167y8PGdnZ0dHxzL9e0oDt1tbxWIx+2LRjzO/G+JDbG1tP/Q7H688rI9UKn3vqmAH1Sg4x83NzTxaTMFLgkJfo2na2dnZXAQ7OTmxo+xYt6JsNjKZ7ONbL03T7FXBuxwdHbl4uPlX9vb2hQpWllQqLXTZad7MRCKReTUW/DeLz+cX3FBL8cFwzpHJZO9uTmzj67tf5vF4BXfbQuzs7Kz7lSAKheJfC8p3N7ZCaJr+UAezDx1mue5D60QikRQ6JJr3X5qmfXx82H/zeDzzv82fFjzWyeVyC12ol388Hs/V1ZXtqFPQh84FEomk0LnYjL2UKv2IZQWPZAEAAAAAB6BsBQAAAAAO4HYnAQAA+Iivv/66bdu2eHcVABfZ2NicOHFCJBLhJTxmKFsBAKzWh7oLA0D5x+PxvLy8SKcoX9BJAAAAAAA4AGUrAAAAAHAAylYAAAAA4ACUrQAAAADAARYcJUur1Y4YOiw/P99Cv281lNnZQpHoQ0MlgYUos7PlcjkPj2e+T15urkAgkFhmCLEKRZmdLRQKZTY2pINYmxylUiqTFRz7B8z0Op1arbbDo3ifTJmdTVGU/f+GOofS4l+nzsLFi0q2rAXLVoZhcpRKC/24NZk8adKosDB/f3/SQSqWgf37R/z2m4UGd+W6n5ctq1K1at9vviEdhPOmTJo8bPiwgHr1SAexKgzD9AztMX/B/AYNG5LOUh5dOH/+WGTkytWrSQfhvOjTZx48fDhl6hTSQaxQiS8GLPgCLJqmcY1SFCajyVYux7oqY0aD0d7BAWXre4nEYh6Pj23y0xmNRuzdlpCXm2tjixX7fkKRSCgUYeV8OqlMxufjSFi+oG8rAAAAAHAAylYAAAAA4ACUrQAAAADAAShbAQAAAIADULYCAAAAAAegbAUAAAAADkDZCgAAAAAcgLIVAAAAADjACstWo9F46dKla9euvftRdnb2unXr5s+fHx8f/+5Sp0+fnjZt2rFjxwwGQ5kk5byMjIxNmzZh/N4SMJlMp06dunv37rsfpaSkLF26dMmSJZmZmWUfjCsYhnny5Mm+fftMJhPpLABQPNnZ2WvWrFmwYEFCQgLpLMAx1la2RkdH9+nTp3Xr1vfv3y/00fPnz7/44ouOHTtOmjRp9uzZMTEx5o+MRuPMmTNjY2OXL1+uUqm+++47jUZTtsE5JiUl5aeffvLy8lq1apVWqyUdh0sMBsORI0c+//zzLl26xMXFFfr03r1748eP79ev37Bhw3r27Hnnzh0iIcu5O3fujB8/3s/P7+TJk5YbnhoALOHp06e9evXq2rXrxIkTZ86ceeXKFdKJgEusrWzt0KFDRESEvb19ofl5eXnDhg0bO3asn5+fo6PjwoULv/jii5cvX1IUxTDMvn377ty5M3bsWD6f37dv3xs3bvz2228k4nOGp6fn7NmzR48eTToI9wgEgt69e+/Zs8fR0bHQR5mZmZ07d548eXLVqlXd3NzWrFkzatSorKwsIjnLswYNGvz8889NmzYlHQQAiic3N3fEiBFTpkzx9fV1dHScP39+SEhISkoK6VzAGdZWtlIUJRAIaJouNPPy5ct37941n+fc3d0Zhtm/fz9FUfn5+bNmzWrevLlIJGI/7dix45YtW3Q6XVnG5hyapsViMekUXCUSiXi8wnvf6dOn09PTa9WqxU7WqVMnNTX12LFjZZ6OA3g8nlAoJJ0CAIonJibm4cOHTZo0YSc9PDz0ev2hQ4fIpgIOscKy9b1Onz4tFosdHBzYSZFIVKtWrQsXLhgMhpSUlMzMzHr16pm/7OPj8+zZs+fPnxMKCxWR0Wg8duyYp6enXC5n50gkEltb23PnzpENBtaEYZjr169HR0dnZGT8+OOP169fL/SFly9fjvmfM2fOGI3GNWvWsJM5OTlEMoM1OXXqlEQiMd8RlUgkvr6+58+fNxqNZIMBV1SIstVkMj19+pTP5/P5fHYOn8/39PR88eKFSqV68eKFTqczV7QURbm6uubn5z969IhQXqiI8vPzHz9+XLlyZYFAYJ4plUpfvHiBp46gVCQlJfXr169p06YXL15cv3794cOHV6xYUeg7VapUmTBhwt9//7179+569erx+fxGjRrdu3fv+++/t7OzIxIbrIbJZHr27JlQKDTfa2LPxc+fP1epVGSzAVdUiLLVYDCoVCo+n1/wtqxQKFSpVGq1Ojs722g02tjYFPyIoqiMjAwCWaGi0ul0eXl5Dg4O5osriqJomlar1Xq9nmAwsBpVq1ZdsWKFh4fHxYsXv/vuu3v37h04cODdr/n7+2/dulWr1f72229qtTo6Ovrs2bOVK1cu+8BgZQwGQ35+fsFzMU3T7LkYj0FDEVWIsvVdDMOoVCqRSFSwZcssLy+PoiipVFrmuQD+PwaDQSAQvNsLFqBkhEKhSCQKCQn5eMf0xo0bh4eHL1mypEePHl9//TUOhmAhJpOJPRcXvFwH+Ij3FG3WRyQSubm5PX782Hyz1WQy5eTkuLm52draenl5iUSignco2KbZmjVrEsoLFZGNjY2npyfb9m9+2MhgMLi4uODZIyhd5odWMzMznZ2dzfNbt2595swZ9nnB/v377927NyUl5d1XXlRMqampixYtKsGCLi4uM2bMKHhDr8Jiz8UJCQmFzsWVKlWytbUlm40TDAbD3Llzs7Ozi7ugTCabNWtWwZ2duypE2UpRVNOmTU+fPq3VatlmA4PB8PDhw6+//loikVSrVk0sFhd8AUdycnLlypVr165NLi9UOBKJpEmTJps3b9ZqtRKJhKIoo9GYn58fFBREOhpYLZFI9PXXX5sn/fz8zE37cXFxTZo0iYyMnDx58p49e9AY5uHhsXHjRtIpOC8oKCgmJkav17Pt/Xq9/sGDB8OGDcN7aYpCIBD89NNPpFMQVlFuPnbt2tVgMJgH5MjJydHr9X379qUoysXFpXPnzjExMeb3lt+8ebNVq1ZOTk7E4kKF9PXXXyuVyrS0NHYyJSVFpVL16NGDbCqwYnK5fF8B8+bNY/tNZWZmrl69et68eWvWrDl69OiWLVswrAOUim7dumm1WvO5mL2/VPDaCeDjrLZsLfSullq1ai1atCgiIoJ9y8Yff/zRv39/9jWuAoFg3bp1Dx48SExMpCjq7du3CQkJ8+bNIxKbc5RKJcbCLbFC4+LWr19/9OjRhw8fpijKZDKtW7duxowZdevWJZSOA3JycvCahRJ48+bNR8pQvV6/du3aFStWiESidu3a/fjjj9OnT3/48GFZJgRr5efnN3fu3E2bNrHn4qNHjw4fPrxx48akcwFnWFvZGhkZOXTo0Nzc3PDw8JkzZ5rLAh6PN3r06Fq1ak2fPv3bb781GAwrVqwwdxl0d3cPDw/fuHHj+PHj16xZ8+uvv9aoUYPcH8EBGRkZI0aM2LVrV3p6elhYWGRkJOlEXLJr166BAwdmZ2cvX778+++/NxcQAoFg7dq1IpFo0qRJ33//va+v78SJE/E81rvu3r07fPjwO3fuREdHjxgxAhVVESUnJw8dOjQhIWHHjh1hYWFKpfLd76jV6gEDBmzYsGHfvn0mkyk2Nvb06dO5ubldunRZu3Zt2WcGK8Pj8caNG1etWrXp06fPmDGDz+cvX778vc9GA7yXtW0roaGhoaGh7/1IJBJNnjz5QwsGBQWhE2HROTs7Y/zbEhswYMCAAQPe+5FQKJw+fXoZ5+GcwMDA3bt3k07BPZUrVz5x4sTHvyOVStnhA1l169bFgBdQusRi8bRp00inAK5CQw4AAAAAcADKVgAAAADgAJStAAAAAMABKFsBAAAAgANQtgIAAAAAB6BsBQAAAAAOQNkKAAAAAByAshUAAAAAOMCyww0olUqMZP2vjEZjXm5udnY26SAVC8MwSqVSq9WSDlIe6XU6rVaDbfLTmUymvLw8rMlSR9O0SqXCin0vdb7aYDBg5Xy6/Px8vU6HNVn/RHGVAAAgAElEQVTqBAKBra1tyZalLVdWarXa3j175rxv/EAoyGQ0UhTN46Plu0yZjEaax6NpmnSQ8shkNFE0hXFlP53JaKRoGmuy1GH//QiGYRiTicfnkw7CeSajkaIorMlS1zgoaHVJB4u2YNkKRTR4wMDpM2cEBASQDlKxdOvc5dAfR6VSKekg5dGP8+e7u3uMDBtFOgjnDR4wcMq0qYENGpAOYm0aBzYIj4gIaoIRud/j5IkTx/6MDI/YRDoI5508fuLWrVtz5s0lHQT+D9oAAAAAAIADULYCAAAAAAegbAUAAAAADkDZCgAAAAAcgLIVAAAAADgAZSsAAAAAcADKVgAAAADgAJStAAAAAMABKFsBAAAAgANQtkJJMAzz9OnTHj16NGrU6K+//jIajaQTcYbRaDx16lStWrU8PT2XLVumVqsLfqpSqUaPHi2VSnv06JGenk4qZDlnMplycnKOHDkyduxYbHsA3MIwzOPHj0NDQ5s3b37+/HmTyUQ6EXAJylYoiZMnT06cOHHv3r03bty4ffv2ggULSCfijJUrV3bv3v2ff/5JTU2dNWtWq1atDAYD+1FmZuaoUaOGDBly5syZjIwMX1/fly9fkk1bPh04cODHH3/84osv8vLySGcBgOI5ceLEDz/8sGvXrpiYmLNnz65fvx6DzEPRoWyFYsvLy/v++++HDh0qk8l4PN4333yze/fuu3fvks7FAa9evUpKSnr27BnDMG/evBk7duydO3d27NhBURTDMFevXt22bVuzZs1atmy5d+9epVKJtfpeffv2XbhwYfPmzUkHAYDiSU5Onjhx4rRp0+zs7IRC4ciRI+fOnYsDHRQdylYotlOnTj179qxx48bspIeHR9WqVX/55Rfcrv1Xd+7cmTFjhre3N0VRzs7O8+bN8/T0fPHiBcMwNE136dJFJBKx35TL5QKBgP0mvIumaT6fTzoFABRPdHS0UqmsXbs2O+nk5CSRSA4fPkw2FXAIylYoHoZhTp48WaVKFVdXV3aOWCz28PA4cOCARqMhm638Cw4Orlq1qnlSJBLZ29s3bdqUpmmKogQCATuf7fu1cuXKOnXqkAkK1ohhmLy8vE2bNq1cufLhw4e1a9fesmVLoe88ePDAwcGBx+PxeLz169fr9foePXrweDyFQvH69WsiscGanD9/XiKRyGQydlIkEvn6+l69elWn05ENBlyBshWKx2Qy3bhxw9HRUSwWm2c6OzsbjcZCTxfBv0pJSdFoNB07diw4U6lULliwYMqUKb1792bLWYBScenSpeDg4NGjR8fHx7969apz586PHj0q9J2AgIDk5ORvvvlGJpP16NFDKBSOGTNm9uzZqamp5itVgJLR6/VJSUlCoZDH+2/twefzXV1dX758mZubSzYbcAXKVig2jUbD5/MLVlQ0TTMMgwdCi2vfvn0LFiyQSCQFZx47duzNmzf379+vV6/ezZs3SWUD69OqVav9+/dXqVJFrVa3a9du7dq1q1atevdrtra2P/30k7Oz89SpU2NjY2/cuPHuVgpQAgzDGI1GmqYLnT70ej36mEERCUgHAO6Ry+WFHvzMyspCX8PiunnzptFo7Nu3b6H5AwYMGDBgwNChQ9u0abNkyZL9+/ebOw8AfCI+n8/n8/38/NiNSqfTHTt2zPyps7Nzq1ateDyel5fXnj17OnbsmJKScvz4cWyBUCp4PF6hbcloNGZlZclkMnO3foCPs8KDkclkGj9+/IEDB0qw7PLly4cNG1bqkawJj8cLDAy8fPmyRqNhDzQMw6jVaicnJ6lUSjodZ+Tn5+/fv//HH3803ywrpGHDhqNHj/7777/1ej2KBrCQ3NzcL7/80jzZunXrM2fOsPt106ZNv/nmm6NHjyYlJTk5OZHLWF48fvy4VatWJVjQ29v79OnTjo6OpR6JcwQCgaen57Nnz4xGo1AopP7X39rLy8vW1pZ0Og7QarVBQUGpqanFXdDBwSE6OrpatWqWSFXGrPB0yOPxNm7cuHHjRtJBrBNN0926dTt69GhmZqadnR1FUWq1Oj4+vnfv3riNWERKpXLq1Kk///zzRwp9Ho/XoEGDx48fo2YFy3FwcLh//7550sbGhi0mKIr6888/v/7664yMjBEjRly+fBl7t5+fX0ZGBukUnNehQ4eoqCiNRsNuUVqtNjY29rvvvsOBrijEYnHBHbZiQt9WKLZOnTp5e3vHxMSwky9evHjz5s3kyZM/1HAIBWVmZq5cuXL58uUKhYKiKIPBcOLEifj4+EJfYxgmMTFx2LBh5jICoNTx+fyAAqpXr852Orxz587Lly/bt2+/fPnyjIyMMWPG6PV60mHBGnTs2FGhUJhf1JqSkiIWi3v37k02FXAI6gwoNltb2yVLlhw5ckSpVKrV6l27dk2ePNk67j5Y2ps3b4YOHbpw4UJnZ2f2uQShUDh+/HgXF5f8/PyuXbt+//33b9++ZV/X8ObNm5CQENKRyymNRqNSqRISEvD+imLJysrKz89/9OiReWy2dyUkJKxcuXLs2LF8Pr9WrVrsgEa7du1C5QqfzsPDY926dStXrszKylIqleHh4StXrqxZsybpXMAZaJaHkmAbXHv37q3T6davXx8YGEg6ETcMHz788uXLbDur2ciRI21sbGiaHjNmzNSpU7dv3x4SEjJr1qw1a9aQylnOHT9+fPDgwey/vby89u/f36FDB7KROOHBgwdt27alKCoyMjIyMjI2NtbNza3Qd5RKZWhoaEpKyujRoyMiIs6dOzdr1iw7O7vp06efPXt2165dJIKDVenSpUu1atVCQkJEItGmTZtQs0KxoGyFEqpZs+bZs2dJp+CYyMjIj3waGhoaGhpaZmG4q3v37pmZmaRTcE9AQMC/rjd7e/uCnec6duyIVQ2lrnbt2pcuXSKdAjgJnQQAAAAAgANQtgIAAAAAB6BsBQAAAAAOQNkKAAAAAByAshUAAAAAOABlKwAAAABwAMpWAAAAAOAAlK0AAAAAwAE0wzAW+mmDwbDq5xUqlcpCv281zp8/X69+PSeFE+kgFUvUyZMdO3cS8DHixnvcvHHDVi6vXbs26SCcd+H8+boBAc7OzqSDWBWGov48erTFZ5+5urqSzlIevXz58sWLF23atCEdhPOSkpIy3rxp2KgR6SDWxqdGjUFDBpdsWQuesxmGcVQ4yu3klvtPWIdKldycnZzcKlUiHaRi8fDwcHNzEwqFpIOUR+4e7ra2tpXcsU1+KrdKbk5OCqzJ0sUwjIenp7t7JReUre+jN+g1GjW2uk+Xm5tL0RTWZKmzlduWeFkLlq1CoXBkWJjlft9qXLt67Ys+fQICAkgHqViORx4bGRYmlUpJBymPfpw/393dY2TYKNJBOO/a1Wu9v/wysEED0kGszdbftnTt1j2oSRDpIOXRyRMnst5mjRk3jnQQzjt5/MStW7ewJssV9G0FAAAAAA5A2QoAAAAAHICyFQAAAAA4AGUrAAAAAHAAylYAAAAA4ACUrQAAAADAAShbAQAAAIADULYCAAAAAAegbAUAAAAADsCA7FASOp1u8+bNWq1WKpW+fv16zJgxGBwcyszbt2/XrVvn4uJC07TBYAgLCxOLxaRDAUCRaLXapUuXyuVyoVD46tWr7777zta25EN9QkWD1lYoiTVr1ly5cmXq1KljxoypWbPmmDFjDAYD6VBQIRiNxrFjx1aqVGncuHFjx4598uTJzz//TDoUABSJ0WhctWpVbm7upEmTJkyY4OvrO2bMGI1GQzoXcAbKVii29PT09evXDxkyhJ3s2LHjgwcPTp48STYVVBAxMTFXr14NCQlhJ/v3779hw4akpCSyqQCgKJ48ebJ48eKRI0fy+XyKooKDg48cORITE0M6F3AGylYotsOHD2u1Wl9fX3bS0dGxRo0aW7Zs0ev1ZIOB1TMYDBs3bvT29nZ2dmbn1KhRQyQSHTlyhGwwACiKqKgoqVTq4eHBTtra2laqVAn7LxQdylYoHpPJ9PfffysUCgcHB3aOQCCoVKnSuXPn1Go12Wxg9TQazdmzZ11cXMydWeVyuZOT06VLl4xGI9lsAPCvrl+/LhaLhUIhOykQCHx8fO7du4fTBxQRylYoHoZhbt265eTkJJFIzDPt7OyMRiP6J4GlabVag8Hg5uZmniMQCGxtbR8+fGgymQgGA4B/pdPp0tLShEIh20OAoigej2dvb5+enp6Xl0c2G3AFylYA4DaGYXQ6HekUAFASzP+QDgLcgLIVis3b27vQUebNmzc8Hs983wfAQgQCAY/HK9iwqtPpsrKyatasSdM0wWAA8K8EAoGNjU3BOUaj8c2bN3Z2djKZjFQq4BYrfG8rwzCnTp16/PhxCZZt3759/fr1Sz2SNeHxeAEBAX/++adKpWL7FxqNxtzcXF9fXxx3Pu7Vq1f79u0rwYJubm79+vUr9TxcJBaLK1eunJqaajKZeDweRVEajSY/P79hw4bm247wEenp6Xv27CnBggqFom/fvhX5/bgZGRk7d+4swYIODg7ffPNNwV5VFRaPx2N7shoMBraZw2g0JicnN2rUCKePojAajdu2bcvNzS3ughKJpF+/fvb29pZIVcassGylabpLly5dunQhHcQ60TTdq1evbdu2JScnKxQKiqJyc3Pj4uJGjBghEolIpyvX3N3dp0yZQjoFt4nF4kGDBu3Zsyc3N5c9BCcnJ7969apXr15obS0KNzc3bIQl4+zsjFX36YKDg3fv3p2dnS2VSimKUqvVr1+/Dg4OZq9C4eP4fP6IESNIpyAMGwoUW4sWLZo2bXrq1Cl28uHDh3q9PiwsDHUDWBpN02PHjlWpVPfu3WPnnD9/vm3btkFBQWSDAUBRtG3btn79+uYXtT579szV1bV79+5kUwGHoGyFYqNpOjw8/MqVK8+ePUtPT1+3bt327dtxiwfKhq2t7ebNm9evX69UKm/dunX16tUtW7bgkgmAE2Qy2e+//75s2bJ//vknLi5u7ty5J06cML+GGeBfWWEnASgDXl5eW7ZsiYqKMhqN69evL/hCIgBLa9u2bdWqVQ8cOODs7Lxt27ZCD3kAQHlWrVq1M2fOnDhxgs/n79u3j+1sBlBEKFuhhBQKRf/+/UmngAqqevXq1atXJ50CAErCyclp0KBBpFMAJ6GTAAAAAABwAMpWAAAAAOAAlK0AAAAAwAEoWwEAAACAA1C2AgAAAAAHoGwFAAAAAA5A2QoAAAAAHGDZ97YyDGPR37caDMNgXZU1Gqv9wxiGwv5bGmiaxmZW6hiGoWmaPXCSzlJOMdh/SwODI6HFlHhoQ9py/z+0Wm27Vq0zMzMt9PtWg/1fgNEpy9j/znzwHtgmSwvWpIVg//04rJ9Sgf3XQlq3ab1569aSLWvBspVhmKSkJMZkstDvW40fvvt+0JDBtWrVIh2kYhk3ZszK1aslEgnpIOXRpvBwZxfXL778gnQQzvvhu+/7Dxjg5+9HOohVYSiq/9d9v5vzQ926dUlnKY8u/X3pwvnzP8ydQzoI58VcuPj48eOwMaNJB7E2YonE3d29ZMtasJMATdNeXl6W+32rwefz3T08qnl7kw5SwTCUV7VqUqmUdI7ySCqT2dnZYZv8dHw+393DHWuy1Ol0Oje3Slix7xUbGysUCrFyPl3so1hZUhLWZLmCR7IAAAAAgANQtgIAAAAAB6BsBQAAAAAOQNkKAAAAAByAshUAAAAAOABlKwAAAABwAMpWAAAAAOAAlK0AAAAAwAEWHG4ArJtGo7l3715+fn69evWcnJxIx4GKJSsr6/79+yKRqH79+jKZjHQcACgG9vSh0Wjq16/v4OBAOg5wCVpboSRyc3MHDx5MUVSjRo1Gjhz56NEj0omgAvnnn38GDhxYu3ZtZ2fnIUOGZGdnk04EAEWVnZ3dunVrmqZr1arVs2fPV69ekU4EXIKyFYqNYZgxY8b4+fk1bdrUzs5u6tSp/fr1y8/PJ50LKgSNRvPNN9+MGzfOzc2tZs2azZo1GzlyJMMwpHMBwL/TaDRhYWFhYWFBQUHu7u6LFy/+/PPPMzMzSecCzkDZCsX28OHDY8eOBQcHs5MBAQE0TW/evBmlA1gawzC7d+/Ozc1t0qQJO6dDhw7nz5+/ceMG2WAAUBT/+c9//vrrr44dO9I0TVGUv7//y5cvjx8/TjoXcAbKVigehmEOHz7s4ODg5eXFzpHL5d7e3rt379bpdGSzgdXT6/Vbt26tXr26vb09O6dy5cqOjo6RkZG4agIo//766y+pVOrs7MxOSqVSb2/vqKgok8lENhhwBcpWKB6GYe7cuWNjY2N+DobH41WqVCk2NlatVpPNBlZPo9HExsba2dkJBP99nFQqlTo5Od2+fRunPYDy7+HDhwKBgMf7b+0hEAiqVav25MkTnD6giFC2QvEwDPP48WNHR0exWGyeKRaLTSYTWlvB0vR6vdFodHFxMc/h8/kikejp06coWwHKOZ1Op1QqhUIhn89n59A0LRaLlUqlSqUimw24AmUrlAKNRkPTNNtXCaAssddLUqmUdBAAKDaGYbRabcH2V4CPs8L3tjIMc+/evZSUlBIsW7duXXOXTXgvmqbr1auXkJBgNBrNM5VKpUgkKtj+Cu/Kysq6cuVKCRa0t7dv2bJlqefhIpFIxOfzNRqNeY5er8/JyfHz88NpryiUSuWlS5dKsKCtrW2LFi2EQmGpR+KK3NzcmJiYEixoY2PTokULkUhU6pE4RyQSKRSKxMREc090o9GYlZXl5ORkY2NDNhsnmEymCxculKBDhVAobNmypXW84toKy1aapgMDAwMDA0kHsU48Hq9hw4a3bt3Kzc1lm7j0en1mZmazZs3Q4vVxjo6O3bp1I52C28RiccOGDVNTUw0GA9u9NTc3Nycnp2nTpubbjvAR9vb22AhLRi6XY9V9urp16167ds1gMLB1vNFofPDgQe/evXH6KAoej9e+fXvSKQhD+wQUW58+fdRq9ePHj9nJt2/fPn/+fMyYMRW5JQbKhkgkGj169NOnTzMyMtg5z58/1+v1X3/9NdlgAFAUISEhKpXKPMRAbm4u9l8oFpStUGw1atQYOHDgwYMH2ckLFy74+vp27dqVbCqoIHr06OHj43P+/Hl28siRI0OGDEHfHgBOaNiw4bBhw/bu3cs+Q3n+/PlOnTqhExQUnRV2EoAyMH/+/IULF+7atcvGxubKlSvbtm1DUyuUDZFI9Ntvvy1atEgmk2VmZjo6Os6cOZN0KAAoEqFQuHjx4pEjR+7evZvP558/f37Hjh3o2ApFh7IVSsLGxmbp0qXsv3v16kU2DFQ0VatWjYiIIJ0CAErC1tZ279697L/79etHNgxwDjoJAAAAAAAHoGwFAAAAAA5A2QoAAAAAHICyFQAAAAA4AGUrAAAAAHAAylYAAAAA4ACUrQAAAADAAShbAQAAAIADLDjcgMlkehH3wnK/bzX4fEFy0kupREo6SMUiFIninsdJJBLSQcojZbbSUeH0/J/npINwnkAofPky2dZWTjqItank7p6SnOzo6Eg6SHmkVObk5amw/366tLQ0jVqDNWkJNWrWKNmCNMMwpRvFTKvVjhkVplarLfT7ViMtLU0ul2N0uzKWlpbm6urK4+GGw3tkZmSIJRJbW1vSQTgvLS3N1tYWa7LUvX792s7ODped76XRaHJyclxdXUkH4by3b9/q9Xo3NzfSQaxNbb/a8xYsKNmyFixboYgGDxg4feaMgIAA0kEqlm6duxz646hUikbu9/hx/nx3d4+RYaNIB+G8wQMGTpk2NbBBA9JBrE3jwAbhERFBTYJIBymPTp44cezPyPCITaSDcN7J4ydu3bo1Z95c0kHg/6CpCQAAAAA4AGUrAAAAAHAAylYAAAAA4ACUrQAAAADAAShbAQAAAIADULYCAAAAAAegbAUAAAAADkDZCgAAAAAcYMHBXcG6MQxjMBgYhhEIBBhrqljYVWcymXg8nkAgoGn63U8ZhhEKhYU+goJMJpPJZBIIcBAD4B69Xo/TB5QANhcoCY1GM3v27KNHj16/fn3cuHFJSUmkE3FGfn7+1KlT9+7de/v27YMHDw4YMMBgMJg/1Wq1Q4YMOXHixLlz53r27JmdnU0warmVlZW1ZMmSgICAkSNHGo1G0nEAoBh0Ot2ECRP27Nlz+fLlUaNGvXr1inQi4BKUrVASc+bMycvL69OnT8uWLYODg4cOHarVakmH4oZ169YJBIJBgwY1b978m2++qV279rx580wmE0VRarWaXaU9e/bs3LlzSEjIjBkzsGLflZiY2KhRo5ycHNSsANxiMplWrFhhNBr79+/frl27oUOHhoaGZmZmks4FnIGyFYotPj5++/btffr0YSdbtGiRlpZ28OBBsqm44ty5c1WqVGH/TdO0v79/dHQ0W5vevHkzMjKyQ4cO7Edffvnl0aNH//77b5Jxy6XAwMDWrVtXq1aNdBAAKJ64uLiff/556NChbPeeevXqJSQkHD58mHQu4AyUrVBshw4dEolEPj4+7KSDg4OPj8/27dt1Oh3ZYJygUCjWr1+v1+spimIY5tq1a/3795dKpRRF7d+/n6ZphULBftPBwcHe3j4qKopkXLAibJ9pk8mk0+mMRqP2f9ju1OZJtu2f/QK7oQKUlosXL9I0bb7mlEgkjRo1ioyMLNhXCuAjULZC8ZhMpuvXr8vlcjs7O3YOn893c3O7du2aWq0mm40TJkyYkJKS0rhx48TExMOHDxsMhtGjR1MUpdFo7t69GxAQIBQKzV+WyWQPHjwgFxasRGpq6siRI6tWrXrq1KlOnTrZ2tru2LFjypQpEolk7dq1Wq02OTl5/PjxMpls2bJlOTk5FEW9fv16yJAhJ0+eZBiGdHywHtevXxcIBDKZjJ3k8/lVqlR58uQJ+vFDEaFsheJhGObevXsKhUIsFptn2tjYsG0zBINxxWefffbHH38kJye3bNny/v37K1asEIlEFEWpVKr09HR3d/eCZSufz8/OzkYzNnyixMREZ2fnN2/eXL58+eDBg/v27evcufOSJUsaNmxoMBjEYnG1atXmz59vY2Pj5OTk4OBAUZRCofj8889DQ0PxOgsoRWlpaSKRiM/nm+fY2dklJibm5uYSTAUcgrIVSgF7fwentyLy9vbu16+fg4PDqlWrIiIi2Huy74WGLigVzZs3/+qrr4RCYdeuXR0dHXv37u3h4WFvb9+rV6+IiAiVSkVRlIODQ/369Tds2JCVlUVR1MuXL5s3b46dGixNr9djM4Ois86y1WAw6ErkIwUEsGia9vPzM5lMBSuqzMxMPp9fsJkQPuT+/fuDBg1au3bt7du3O3bsOGHChF27djEMI5VKHRwcCnXw0mq1crmcbY4F+HSFXnPbs2fPtLS0+Ph4iqKePXv2008/JSUl3bx5k6KokydPsh0QL1++TBewZs0aIsmJYximZKcV9A8uSKFQFDx3MAzz6tUrT09PGxsbgqk4RK/Xl2w7tJpGECt8UzfDMPHx8W/evCnBstWrV69UqVKpR7ImNE3XrVt33759eXl5bD8Bg8GQk5MTGBho7q4EH2IymX744YchQ4bweDwej7dr164JEyaMHz++W7dujo6Ofn5+Fy9e1Gq15gsAnU7n7+9PNjNYMR8fnyZNmuzYsWPZsmWPHz/+8ssvAwMD9+zZExQUlJeXhz26ILVafffu3RIsKJFI6tWrh3ExWHXq1Dl+/LhGo5FIJBRFGY3GzMzMWrVqOTo6ko7GASaT6f79+yXojycQCOrVq8euc66zwh2JpumaNWvWrFmTdBDrxL6YKSIiIi4uzsnJiaIopVL5/PnzWbNmobX1X6lUqqdPn44bN46dtLGxmTFjxu+//56fn+/k5PTll1/u3LkzOzvb1taWoqi3b9/m5OR0796daGSwZlKpNCwsbPbs2aGhoe7u7iKRaPz48ZMmTercuXOvXr3YW7efffaZ1bTTfAqZTNaiRQvSKTivQ4cOixcvfvnyJduFWqPR3Lp166effsLpoyh4PF6jRo1IpyDMOjsJgEUFBgZ26dLl+PHj7OSNGzfs7Oz69euH/kn/ysbGpn79+jExMeY5BoOhadOm7AVAu3bt6tSpc+3aNYqiGIaJiopq165d69aticUt99g3OpFOwSXvvmaoS5cu+fn527dvb968OUVRoaGhzs7O4eHhvr6+JAKClQsICBgwYMCBAwfYLnnPnj1jr9hJ5wLOQNkKxUbT9C+//BIbG3v79u2EhIRffvnlwIEDBV8sAB/C4/HWr19//vz533//Xa1WP3nyZMaMGWfOnGHvxsrl8qtXr4aHhz958uTatWtLly799ddf2Ve6QkEmkykhIeHFixcxMTHJycnokv6vdDrdoUOH1Gr1pUuXClWuDg4O7dq1a9u2LXsDUSaTffHFF59//jlGigdLEAgEy5Yti46O/vvvv58/fz5lypSYmBg3NzfSuYAzrLCTAJQBe3v7nTt3/vPPP9nZ2fv27WNvakNRuLm5nTt3Lj4+/u7duw4ODocOHSrYg1Aulx89evT58+d2dna3b9/GjbP3ysrKevv2LTswW2pqqr29PTrGfdybN2+6d+/Odjh5+vRpnTp1zB/x+fzVq1cXXIGTJ0/GnROwHBsbmwsXLjx79iw3NzcqKgqnDygWlK1QQlKptF69eqRTcJJEIvHz8/vQp3Z2dg0bNizLPJzj5OSEXobF4unp6enp+aFPK1euXHDSPE4bgIWIxeKAgADSKYCTcBsIAAAAADgAZSsAAAAAcADKVgAAAADgAJStAAAAAMABKFsBAAAAgANQtgIAAAAAB6BsBQAAAAAOQNkKAAAAABxAW25Eb51Ot2bVar1eb6Hftxo3/nO9uk91J2dn0kEqliuXLjVp2lSAYaje5+6dO87OzpWrVCEdhPNu3rjh5eXl4upKOoh1YZjr//mPT40aOGy+V2ZGRjleZocAACAASURBVFxcXJOmTUkH4byE+PicnNx69TGwTilzcXEeNXp0yZa14ChZNE37+vpa7vetxvN//vHx8UGJUMbu37vrX6eOSCQiHaQ8epmUWKVKlTp165IOwnkv4uKq+/h4eXmRDmJtnjx5XN3HpwoOm++TlJiYkfGmLvbfT2YyGF+/wZosfTxeyW/1W7BsFQqFPXr1tNzvW40jhw+3btcWI92VsYhff+0eGiKVSkkHKY/u3bvr4uqK/ffTHTl8uHWb1oENGpAOYm0WLlgwcfKUoCZBpIOURydPnIiNjcX+++mEQuGtW7ewJssV9G0FAAAAAA5A2QoAAAAAHICyFQAAAAA4AGUrAAAAAHAAylYAAAAA4ACUrQAAAADAAShbAQAAAIADULYCAAAAAAdYcLgBsG5KpfLo0aNZWVm9evWqVq0a6ThcwjDMn3/+efv2bXYyMDCwV69eNE2zH125cuXvv/92cnLq2bOni4sL0aTlF8Mw8fHxsbGxwcHBnzLgCgCUPbVaffTo0dTU1J49e9aoUYN0HOASHO6hJBITE4cNG9akSZNRo0YtWLAgOjqadCIuSU9PHzhw4MKFCxcuXLhkyRK5XM7WrFqt9ttvv3369Om0adP8/f2bNWt248YN0mHLo0ePHo0bN87Hx+fAgQMMw5COAwDFkJaW1qNHj+rVq4eFhS1ZsuTChQvYi6HoULZCsTEMExYW1qpVK39/fxsbmylTpgwfPjwnJ4d0Ls6IioqKjY1lGIZhGL1e37FjR3b+/v37X7x4MWjQIKFQ+Nlnn/366699+/ZNT08nm7YcqlOnzooVK5o0aUI6CAAUj16vHz9+fHBwcLNmzeRy+bx584KDg+Pj40nnAs5A2QrFdv369QsXLrRt25adrF69uqur65o1a3DFXBSJiYkrVqw4fPjw27dvC87XaDRbtmwJDAwUCP7bdadFixZqtfrPP/8kEbO84/F4IpGIdAoAKJ7bt2+fPn26S5cu7KSzs3OlSpW2bdtGNhVwCPq2QvEwDHP06FF3d3dPT092jkwm8/Ly2rdv34wZMyQSCdl45d+OHTtiY2OnTJmyYMGCSZMmzZ49WywWUxSlUqlSU1MNBoP5mzY2NnZ2dhcvXhw1ahS5vGAljEbj6dOn69Wrp1QqIyMjP//882PHjlEUxefzJ06ceOPGjUuXLrHfHDx4sI+Pz/Xr148fP+7l5TVkyBA+n080O1iPc+fOiUQiNzc3dlIkEgUEBFy4cEGj0eD0AUWB1lYoHpPJdPv2bblcLpPJ2Dk8Hs/V1TUpKUmtVpPNxgk//PBDenr61q1bvb29Fy5cOGvWLLaVWiqVurq6Xr58WavVmr/MMEzBSYCSuXbtWrNmzYKDg6Ojo+fNm7dq1aqEhITq1asvX768bt26jo6OHTp08PT0/OmnnwICAqpXr05RVOPGjfV6fdu2bVGzQimKjY0VCATstTpFUTwer0qVKi9evMjKyiIbDLgCZSsUW0JCglwuFwqF5jkikchkMun1eoKpuIKmaVdX16FDh966dWv8+PFbtmx58eIFRVEymWz06NHnzp178OAB+02NRqNSqfCYPHy6Zs2arV69WiwWp6enHzx48PXr11999VX//v1bt24dHR1tMpl4PF6fPn2cnZ3NTwGq1eoGDRr4+PiQTQ5WRqlUCgSCgoc1sVicmpqKVg8oIpwRoRSoVCqaplFgFQtN0wsWLKhbt+7hw4fZOX379v3zzz+nTZsWHBy8adOmyMjI169ft2zZkmxOsA4ymYzH47Vp08Y8RygU9u3b98CBA0qlkqIohmGqV6++adOmlJQUiqIeP36Mh96gDOTk5MjlcnOffoCPs8INhe18ee/evRIs261bNxypP46m6YYNGz59+tRgMJificnNzZVKpeb7PlBEDg4OPXv2NDczCIXC0NDQ0NBQiqIMBsPo0aNtbGw6d+5MNCNYFfZVa2bt2rXTaDQ3btzo1KnTo0ePtm/f3rRp04sXL/bt2/fUqVPTp0+nKOry5csFr51Wr149efLkss5dDrx+/XrDhg0lWFChUIwaNUoqlZZ6JC5yd3c3Go3m53cZhnn79m3lypXt7OzIBuMEg8Gwdu3aEry3RyKRhIWFKRQKS6QqY1ZYttI03bt37969e5MOYp14PF6zZs0uX76sVCrZ7q1arTY9Pb1NmzY4LpeAjY3Ne+/D3r9/f8uWLXPmzKlVq1bZp4IKokqVKj169NixY0fLli0TEhJatGjRoUOHXbt2tWnTxtnZmb0Qtbe3b9++fcFFyOUlydXVdcGCBaRTcF7Tpk0PHjyoUqnY84XBYIiPjw8ICJDL5aSjcYBAIJg2bRrpFIRZYdkKltanT5+ff/75/v377u7uFEVlZma+ePFiwYIFuMtTXDqdLjY2duTIkYXm5+XlTZw4sVmzZrNmzSrUPAZQigQCwbhx49q3bx8cHBwYGMjn86dOndqmTZs9e/YMHjyY/U7dunXPnj1LNidYjfbt29M0/fjx41atWlEUlZ+f/88//8yfPx9P/kERoTMiFJuHh8fEiRN3797NTkZFRbVo0eKzzz4jm4oTVCrVggULnjx5QlGUUqmcPXt2SEhIofePZmZmfvXVV97e3mfOnDG/rgHeKzc312QykU7BJXl5eYXmBAYGKhSK6Ohof39/iqKCgoIaNWp07tw5V1dXEgHBynl5eS1fvnzTpk06nY6iqIsXL7Zr165Dhw6kcwFnoHkMSmLSpElbtmxZsGCBSCQSCoUbN27EtXJRmEymp0+fNmnSpFatWrVr1540aVJQUJD50z/++OPmzZupqamjRo0KDQ3FKv2Q2NjY8PDwe/fu0TQ9c+bM0aNHoyvFx128eHHOnDlqtXrp0qWJiYlDhw41fySVSr/88suQkBB2e+Pz+YMGDeLz+WjmB0ugaXrgwIHZ2dmLFi0SiUQMw+zatQvX51B0KFuhJCQSybhx40in4B65XL5nz54PfdqzZ8+ePXuWZR6O8vf3X79+/fr160kH4Yw2bdrExMS89yMej1doTY4ePbpMQkEFJRKJ0EETSgydBAAAAACAA1C2AgAAAAAHoGwFAAAAAA5A2QoAAAAAHICyFQAAAAA4AGUrAAAAAHAAylYAAAAA4ACUrQAAAADAAShbyweGIZ0AAIAbGIahaJqicNgEqHBoxmIFk06r7f9Nvxyl0kK/bzUyMjPltrZisZh0kIrl9evXLi4uGMHyvd6+fSuRSDDi4qfLzMy0sbWVYO8ubW8yMuzkchw230ur1ebk5ro4O5MOwnl5eSq9Xu/o6EA6iLUJbNBg2YqfS7asBctWo9H4OPaxhX7cmqxYvrxX794+NWqQDlKxzP3h++/nzBGLJaSDlEfbt23z8PTo2Kkz6SCct/Lnn0NCQ2v5+pIOYm1mTJs2fNRIX9/apIOUR7dv3Yq5eHHy1Kmkg3DelUuX4uLiBg4eTDqIteHzeX7+/iVbVlC6UQri8/l1A+pa7vetBsMw1Wv4YF2VMa1G61+njlQqJR2kPJLbyW1t5dgmP53JZKruUx1rstS9fv26alUvrNj3SkpKFAqFWDmfLikxMf31a6zJcgV9WwEAAACAA1C2AgAAAAAHoGwFAAAAAA5A2QoAAAAAHICyFQAAAAA4AGUrAAAAAHAAylYAAAAA4ACUrQAAAADAAShboYSSk5M7depUo0aNCxcukM4CFc7Vq1fr1KnTunXr+Ph40lkAoHhSUlI6dOhQp06d69evk84CHIOyFUrizJkzI0eOPHjw4JMnTy5evLhkyRLSiaACWbFixZEjR+7cufPXX399++23f/31F+lEAFBUp0+fHjdu3IEDB27fvn3o0KGIiAjLDTIP1gdlKxSbSqWaNWtW//797e3tBQLBgAEDNm/e/OjRI9K5oEKIi4vbsGHDkCFDRCKRTCYbOHDgt99+m5OTQzoXAPy7V69eTZgwYdq0aQqFQiwWjxkz5ttvv3348CHpXMAZKFuh2M6ePfvw4cOmTZuyk5UrV65Spcq6deuMRiPZYGD1TCbTL7/84uTk5O3tzc4JDAx89epVVFQU2WAAUBRnz57NyMjw9/dnJ11cXEQi0aFDh8imAg5B2QrFwzDMsWPHqlWr5urqys4Ri8UeHh779u3TaDRks4HV02q1O3furFatmlQqZecoFAo3N7eoqCiTyUQ2GwD8q+joaIlEYmNjw04KhcLatWtfvnxZp9ORDQZcgbIVisdkMt28edPe3l4sFptnuri4GAwGtVpNMBhUBBqNRqfTKRQKmqbZOSKRyNHR8eHDhyhbAco5g8GQlJQkFAp5vP/WHnw+39XV9eXLl3l5eWSzAVegbIViU6lUBY87FEXxeDyGYVA3gKWx25hIJDLPoWmax+NlZGTgqQ6Acs5kMhkMBpqmzZed7P6r0+kMBgPZbMAVKFuh2GQyWaE52dnZNE3z+XwieaDiYC+WClaoer0+Nze3cuXK5hMhAJRP754mjEZjdna2VCoteC0K8BFWWLaaTKbBgwfzSyQ8PJx0/PKOpunAwMC3b99qtVp2DsMwarXawcHB3N0Q3uvq1asl2yyDgoJIZy8vxGKxUCh88+aNeY7RaNRoNP7+/rhqKoqbN2+WbCOsU6eOUqkkHZ+khw8flmzV+fr6ZmZmko5fLgiFQg8PD71eb35+l2GY/Pz8qlWrmnu7wkdotVovL68SbITOzs4vXrwgHb90CEgHKH08Hm/79u3bt28nHcQ68Xi8rl27Hj9+PDMzUy6XUxSl0WgSEhJ69eolkUhIpyvXmjdvjpctfCKxWPzVV189evRIo9Gw29vr16/j4+MXL16M1taiaNy4MTbCkqlbty5W3adr37796dOnzfuvVqt98ODBjBkzhEIh6WgcIBaLExMTSacgzApbW8HSunbt6unpeenSJXYyISEhPT190qRJBXu7AlgCn8+fOHHiy5cv4+Li2Dk3b96sXbt2586dyQYDgKLo1KmTXC5/8OABO5mWliYSib744guyqYBDUGdAsdnZ2S1atOjgwYMqlUqr1e7duzcsLKxmzZqkc0GF4O/vP2TIkL179xoMBqVSefDgwaVLl+IOIwAnVKlSZfXq1atXr87JyVGpVBEREYsXL65duzbpXMAZVthJAMpASEhIjRo12rZtq9PptmzZ0rhxY9KJoAKZP3/+sWPHfHx8AgICNm/e7O7uTjoRABRVjx49qlev3rJlS7FYvGPHDj8/P9KJgEtQtkIJ+fn53bhxg3QKqKBCQkJCQkJIpwCAkggICLh//z7pFMBJ6CQAAAAAAByAshUAAAAAOABlKwAAAABwAMpWAAAAAOAAlK0AAAAAwAEoWwEAAACAA1C2AgAAAAAHoGwFAAAAAA6w4HADRqPx2tVrlvt9q2Eyme7fvZejzCEdpGIRS8TXrl4VicSkg5RHymylQCC8fOky6SCcZzKZ7t+7r1Llkw5ibZxdXJ48eazT6UgHKY+SEpN0Oh3230/39OnTzMxMrMlSJ5NJGzRsWLJlaYZhSjeNmU6nGzZ4sDJbaaHftxqpqamOCoVUIiEdpGJJSkqqXKUKj6ZJBymP0tLTpRKJvb096SCcl5qa6qhwlEqkpINYm6SkJGcXF5kUK/Y9VCpVVlZW5cqVSQfhvJzcXK1G4+LiQjqItQls2HDh4kUlW9aCZStFURb9casxZOCg6TO+rRsQQDpIxdK9S9eDR49Icdp7n4Xz57t7eI4YNZJ0EM4bMmjw5CmTAxs0IB3E2jRp2Gjjpl8bBwWRDlIeRZ08eezPyI2bfiUdhPOiTpy8devWD3PnkA5iheiSthlZsJMA9QmxKhyaxroqezRW+4fQNIX9t1QwDDYzS2AYht2DSQcpv7BySgvWZLmCR7IAAAAAgANQtgIAAAAAB6BsBQAAAAAOQNkKAAAAAByAshUAAAAAOABlKwAAAABwAMpWAAAAAOAAlK0AAAAAwAGWHW4ArJVer9+zZ09SUhKfzxcIBMOHD3dyciIdCiqK7OzsiIgIvV4vEAicnZ0HDhwoEolIhwKAItHpdBs3bszNzaVpmsfjTZ48WSaTkQ4FnIHWViiJjRs3Hj9+fM6cOd99952rq+v48eONRiPpUFAhmEymiRMnSqXS77//fubMmVevXl2/fj3pUABQJCaTacOGDXFxcbNnz/7hhx9cXFwmT56s0+lI5wLOQNkKxZaRkbF69erhw4ezk127dr158+aZM2fIpoIK4urVqxcuXOjVqxc7OXjw4JUrV6amppJNBQBF8ezZs7lz544dO1YgEFAU1aNHjz179ly6dIl0LuAMlK1QbEeOHMnLy/Pz82MnFQqFj49PRESEwWAgGwysnsFg+OWXX6pVq+bi4sLOqVmzpkAgOHLkCNlgAFAUUVFREonE09OTnbS1tXVxcTl8+DDZVMAhKFuheEwm08WLF52dnR0dHdk5QqGwUqVK0dHRarWabDawelqt9tSpU25ubmKxmJ0jl8udnJxiYmLQTQWg/Lt27ZpYLDZ3RhcIBDVq1Lh7965GoyEbDLgCZSsUD8MwN27ccHJykkgk5pkODg4GgwHHHbA0jUZjMBjc3NzMc4RCoVwuf/DggclkIhgMAP6VTqd79eqVUCjk8/nsHD6f7+DgkJaWlpubSzYbcAXKVig1DMOQjgAVFFr6AbjLZDLh9AFFhLIViq1q1aoMwxQ8ymRkZPB4PKFQSDAVVAQCgYDH4xXc9nQ6XVZWVs2aNWmaJhgMAP6VQCAo9K4ro9H45s0buVwulUpJpQJuscL3tjIMc+jQobt375Zg2ZCQkGbNmpV6JGvC4/ECAgKOHz+en5/P9i80Go15eXk1atTAcefjkpKSNm3aVIIFPTw8xo0bV+p5uEgsFru7u6f8v/buPDCGu/Ef+MzsfeS+74MEcQah6ggaRxFFEXerbnFVKfVUL9+2FK2HolTFUVWqBHEUdRal4kjElQQhCbnvvXfm98c+3/3mpx5NVjafzO779Vdm1mzfzzx7vOezn5nJyWFZlmEYiqI0Go1KpYqMjDT/7AgvkJOTs27dOgs2dHd3nzZtWvWpQfYmLy9v9erVFmzo6uo6bdo0XJqUoiiGYUJDQ1NSUgwGg2mYg2XZJ0+etGzZUqFQkE7HAwaDYeXKleXl5bXdUCqVxsfHu7q6WiNVPbPB2krT9LBhw4YNG0Y6iG2iaXrQoEFbt27Nzc01nZVVVVWVmZk5ZswY81ky8FyBgYGff/456RT8JpFIxowZ8+uvv1ZVVTk4OFAUlZubm52dPWjQIIy21oSfnx9ehJbx8vLCrnt5ffv2/fnnn8vLy03DHCqVKjc3d/78+aajUHgxoVC4YMEC0ikIwwsFaq1r166RkZHmC7XeunWrsrIyPj4evQGsjabpmTNnlpaWpqammtacPXu2S5cunTp1IhsMAGqiZ8+e4eHhFy5cMC3ev3/f2dk5NjaWbCrgEdRWqDWGYdavX3/69On79+8XFhauXbv2hx9+UCqVpHOBXXB0dFy7du3atWsrKipSUlLOnDmzadMmHDIB8IJSqdy6deuXX355//79hw8ffvrppwcOHKh+bRCAF7PBSQJQD8LDw7///vvdu3cbDIalS5earx0NUA9ef/31kJCQtWvXent7JyQk4JAJgEeaNGly8ODBn3/+WSAQbN682XzrEICaQG0FC3l4eOA8ISCladOmCxcuJJ0CACzh5eU1e/Zs0imAlzBJAAAAAAB4ALUVAAAAAHgAtRUAAAAAeAC1FQAAAAB4ALUVAAAAAHgAtRUAAAAAeAC1FQAAAAB4ALUVAAAAAHiA5jjOSk+t1Wrnzp6j0Wis9Pw2o7CgQCKVOjg4kA5iXwoLClxcXQUCAekgDVFpSYlILFYoFKSD8F5hQaFUKlHi3V3XCgsLHRwcJBIJ6SANkUajUVVVubq5kQ7CeyXFxRzHYU/WucZhYR/8a5Fl21rxLlkikWjUmNE6nc56/wnbsGrl1/369wsKDiYdxL589vEn02fOEIvFpIM0RD//9JOrm3vvPr1JB+G9VV9/07tv39BGoaSD2Jr33p07ddq0sPAw0kEaoqvJyRcvXBwzbizpILx35fJfmZmZcSNHkA5ia1xdLT8SsGJtZRimc5cu1nt+m7Flc0K7qKiWLVuSDmJfViz7qlt0tEwmIx2kITp39qyPj2+Pnj1JB+G9LZsT2rVv1yYyknQQW8PQdGTbtlEdokgHaYjUanVGegbevy9PrVJrtFrsyQYFc1sBAAAAgAdQWwEAAACAB1BbAQAAAIAHUFsBAAAAgAdQWwEAAACAB1BbAQAAAIAHUFsBAAAAgAdQWwEAAACAB6x4uwGwbTqd7v79+1qtNiQkxNHRkXQcsC+VlZX3798XCoWNGjXCHT4B+EWn02VmZur1+tDQUKVSSToO8AlGW8ESKpVq4sSJ+fn5Pj4+77zzTnp6OulEYEeysrJGjx7t5OTEsuyECRMqKytJJwKAmqqsrOzRo0dBQYFSqRw4cGBhYSHpRMAnqK1QaxzHzZo1y8/Pr1u3bp6envHx8aNGjVKr1aRzgV3QarUjR46cMGFCUFBQixYtWrRoMW3aNI7jSOcCgH+m1WpNXxldu3YNDQ1dvHhx7969S0pKSOcC3kBthVq7c+fOr7/+OnDgQNNiZGSkTqfbsmULqgPUg927dxcWFr766qumxb59+x49evTatWtkUwFATVy5cmXfvn39+/enaZqiqNatW6enpx8+fJh0LuAN1FaoHY7jfv31VwcHh5CQENMa098//vijTqcjmw1snk6n++GHH0JCQpydnU1rAgICnJ2d9+/fj6MmgIbvyJEjMpnM09PTtCiXy4OCgg4dOoT3L9QQaivUDsdxycnJCoVCoVCY1ggEAm9v75SUFMwTAGvTarU3btxwcnISCv9zOqlcLnd1dU1OTmZZlmw2APhHKSkpIpGIYf7TPYRCYUhIyO3bt1UqFdlgwBeorVA7HMelpaW5urpWP31bKpUajUaMtoK16XQ6o9FoHqqhKEogEEgkkjt37qC2AjRwOp2utLRUJBIJBALTGpqmpVJpaWlpVVUV2WzAF6itUAdMhdU0VwmgPrEsq9frcQ0sAD7iOE6n0wkEAvP4K8CL2eZ1W+/fv19UVGTBhkFBQdUHcuDvaJpu0aJFdnZ29cGtkpISsVgsFosJBmv4Kisrb9++bcGGCoUiIiKizvPwkVgsFggE1cf19Xp9WVlZkyZN8LVXE1VVVbdu3bJgQ6lUGhERYR4ks0NqtfrmzZsWbCiVSps1a2ae1mLPRCKRi4vLo0ePzDNZjUZjcXGxq6urXC4nm40XOI5LSUmx4IdNoVAYERFhG4f3tvlG8vPz8/LysmBD2/g/1apomm7Tps3169crKiqkUilFUXq9vqSkJCoqSiaTkU7XoMlkMsvaJwqZmUQiadWqVU5OjtFoNFWoysrKioqKqKgo7KWaeJkXoZ3vYYlEYtmuo2nanut+dTRNR0REXLp0yWAwmIY5jEZjWlpabGwsamtN0DQdFhZmwelrNE2LRCJrRKp/tllbJRIJCqiV0DQ9fPjwtWvX3r1718PDg6KokpKSjIyMpUuXYrT1xQQCgfk8NrCMWCyePHnyJ598UlRUZPph5P79+xqNJi4uDnNUaoJhGLwILYNdVydiY2PXrl379OnT0NBQiqIqKyu1Wu3w4cNJ5+IN9Hu7PnoGyzRt2jQuLm7v3r2mxT/++CMoKMh8GVcAqxo6dKifn9+ZM2dMi4mJiaNHj27UqBHZVABQE+3btx85cuSePXtMQ4bnzp2Ljo7u1q0b6VzAG7Y52grW9sUXX3zwwQeJiYmOjo6HDx/etm0bhlqhfkgkkoSEhI8//tjLyys3N5eiqKVLl5IOBQA1IhaLV6xYERcXFx4eLhAIdu/e/fPPPzs4OJDOBbyB2gqWUCqV//73v7VaLUVR3bt3t/NJb1DPQkJCEhIStFotwzCYHgDALw4ODklJSaavj/79++PrA2oFtRUsxDAMzsECUgQCAeZ4AfAUvj7AYjjKAQAAAAAeQG0FAAAAAB5AbQUAAAAAHkBtBQAAAAAeQG0FAAAAAB5AbQUAAAAAHkBtBQAAAAAeQG0FAAAAAB6gTfcFtgatVjt6xIjKykorPb/NqKqqEgqEEqmEdBD7UlVVJZfJaQY3WHoOtVotEAhww96XV1VVJRAIpFIp6SC2haNUKpVEIhEIBaSjNEQGg0Gn0+F+HC+vqqqKoiiFQkE6iK1p3abNsuXLLdvWirWV4ziNRmOlJ7cl0yZPmTl7VkTz5qSD2JfhQ97c9tMO9InnWvr5537+AWPfGkc6CO9NnzJ16vRprVq3Jh3E1sR07/HVyhVt27UjHaQhOnH8+MH9B/797RrSQXjv2NHfbly/Pn/hAtJBbJDFt0mz4s1daZrG3dtqguM4sUSCfVXPWJaVSqXY7c8lEArx/q0TLMtK8O62Aq1WKxZjxz6fQCAQCATYOS9PJBLRuA9tA4O5rQAAAADAA6itAAAAAMADqK0AAAAAwAOorQAAAADAA6itAAAAAMADqK0AAAAAwAOorQAAAADAA6itAAAAAMADqK1gocLCwo8++mjy5Mk3b94knQXszp07d+Lj4z/44IO8vDzSWQCgdoqKihYvXhwfH3/v3j3SWYBnrHiXLLBhqampixcvXrVqlbe39/z58zt37jxixAjSocBe7N2799ChQ6tWrdJoNNOnT//Xv/7Vpk0b0qEAoEZu3Lgxb968jRs3urq6zpo1a8yYMTExMTRNk84F/IDRVqg1vV4/c+bMPn36BAcHS6XSadOmLVy48MmTJ6RzgV0oLCycP3/+1KlTHRwcPDw8Bg0aNHXqVJ1ORzoXAPyz0tLSyZMnv/vuuyEhIU5OTosWLYqLi8vKyiKdC3gDtRVq7fz58+fOnYuOjjYthoSE+Pj4fPPNNyzLkg0GNo/juG+//VahUDRr1sy05pVXXrlz586J2s8tgwAAIABJREFUEyfIBgOAmjhz5kx6enr79u1Niz4+Pkajcc+ePWRTAY+gtkLtcBy3f//+kJAQb29v0xqpVBoQELB7926tVks2G9g8rVa7Y8eOkJAQuVxuWuPu7u7j43P48GGO48hmA4B/dOzYMalU6uDgYFqUSCRNmzY9c+aMwWAgGwz4ArUVaodl2eTkZAcHB6lUalpD07Snp2dhYaFarSabDWyeRqMpKChwcXFhmP98dkmlUhcXlxs3bhiNRrLZAODFjEZjRkaGUCg0v38FAoGvr+/9+/erqqrIZgO+QG2FWnv69KlcLhcK/+98PqFQyLIsDpfB2oxGI8uySqXSvIamaaFQ+PjxY4y2AjRwRqNRrVYLBAJzbTW9f1UqFX6sgxpCbYU6UF5eTtO0+ZMIoN4YDIaqqioPDw+ciQzAOyzLVlZWSiSS6uMgAC9ggy8UlmVXr159+vRpC7adMmXK66+/XueRbAlN01FRUampqXq9XiwWm1aqVCqlUmmeNgDPdefOnYULF1qwYaNGjVauXFnnefhIKpUKhcLS0lLzGoPBoFar27dvj6OmmsjIyJg3b54FG/r5+X311VcKhaLOI/FFVlbW7NmzLdjQx8fnq6++Ms/mtGdisdjb2/vBgwfm83dZlq2oqPDx8bHnl1bN6fX6qVOnFhUV1XZDhUKxcuVK8xkpvGaDtZVhmDlz5syZM4d0ENvEMEx0dPTJkydLS0tNHzQajSYnJ6d3796orS/WtGnTxMRE0in4TSKR9O7dOzc3V6fTmY6aiouLc3Nzu3fvjtpaE40bN8aL0DJBQUHYdS+vU6dOp0+f1ul0EomEoii9Xp+amjp58mTTIryYSCT64YcfSKcgDB/0UGuDBw+Wy+VXrlwxLT59+vTRo0ezZ8/GrzxgbUKhcMaMGRkZGdnZ2aY1N2/edHd3Hzx4MNlgAFAT/fr1Y1k2MzPTtFhcXMxxXFxcHNlUwCOorVBrHh4eCxYs2Lp1q2nxwIEDffv2bdeuHdlUYCc6d+782muvHTx40LS4bdu2RYsWubi4kE0FADURHh7+P//zP2vXrjVd+uOXX36Jj4+PjIwknQt4A8NjYInx48e7u7tPmjSJpulu3bp9/fXXOCEG6gdN06tXr05ISBg7dqyrq+vkyZN79OhBOhQA1AhN0xMmTJBIJBMmTBCJRD169Jg5c6ZAICCdC3gDtRUsIRKJhgwZMmTIENJBwB45ODjMmjWLdAoAsIRIJBo/fvz48eNJBwFewiQBAAAAAOAB1FYAAAAA4AHUVgAAAADgAdRWAAAAAOAB1FYAAAAA4AHUVgAAAADgAdRWAAAAAOAB1FYAAAAA4AEr3m6A47gH9+8bWdZ6/wnboNVqsh89kkqlpIPYF4PRkJmRIcFuf57y8nKJRJqenk46CO9ptdrsx48VSiXpILaF42iazsnJdk53Jh2lIcrPy1Or1Xj/vry8vKcV5eXYk3VOLpf7+flZti3NcVzdpjHTarXD3xxaUVFhpee3GQa9nqZpgRB3LKtXBr1eIBTinrTPZTAYaJrGHRdfHt7d1sBRlFGvZwQChsEPhs/BsixrNApFItJBeM+g11MUhT1Z59q2bbvim68t29aKtRVq6K0xY+cteL9ly5akg9iX/n367kncJ5PJSAdpiD775BMfH99JUyaTDsJ7b40Z++57c9tERpIOYmvat4lcv3FjVIco0kEaosOHDh3cf2D9xg2kg/De4aRDycnJiz/+iHQQ+D84VAUAAAAAHkBtBQAAAAAeQG0FAAAAAB5AbQUAAAAAHkBtBQAAAAAeQG0FAAAAAB5AbQUAAAAAHkBtBQAAAAAeQG0FAAAAAB5AbQVLsCz7119/jRkzpm/fvnv27NFqtaQTgR3R6XSJiYkDBgwYNWrUxYsXWZYlnQgAaopl2fPnz48ZM2bAgAGJiYkGg4F0IuAT1FawxL59+xYtWrRly5YjR45kZWUtWrSIdCKwI4sXL75+/fqBAwe2b9++YsWKX375hXQiAKipvXv3rl69etOmTQcOHLh58+ZXX32Fm8xDzaG2Qq2Vl5d//PHHU6ZMEQqFNE0PGzYsMTHx8uXLpHOBXbh58+auXbtGjRrFMIxAIJg0adLixYuLiopI5wKAf5aVlfXuu+++9957UqmUYZi33npr6dKlV65cIZ0LeAO1FWrt8OHDDx8+jIyMNC16e3sHBwevXbvWaDSSDQY2z2g0rlmzxtvbOyAgwLSmRYsW5eXlSUlJZIMBQE0cP35crVaHhYWZFl1dXZVK5Z49e8imAh5BbYXa4Tjut99+8/f39/DwMK0Ri8U+Pj779u1Tq9Vks4HN02q1e/bs8ff3l8lkpjXOzs4eHh7Hjx/HDFeAhu/MmTMSicT8/hWJROHh4ZcvX8YJElBDqK1QOyzLXrp0ydXVVSKRmFe6u7sbjUbUVrA2jUaj1+s9PT3Na8RisbOzc0pKCgb7ARo4nU736NEjsVgsEAhMawQCgbu7++PHjysqKshmA75AbYVaMxgMNE3TNF19JcdxmFYP1mZ6jTHM//fBRdN0eXk5oUQAUAt//5qgadpoNOLXEqgh1FaoNVdX12dKanFxMcMwQqGQYCqwBwzD0DRd/bWn1+vLysqCgoKeOY4CgIaGYRixWFx9jdFoLC4uVigU1X++A3gBG+wZLMt++OGHlp2i8a9//SsuLq7OI9kShmFat2595swZjUZj+qDhOE6lUnl5eZmnK8FzXb9+fdy4cRZs2KxZs127dtV5Hj6SSqVKpTIvL4/jOFNP1ev1Go2mZcuW5p8d4QXS0tJGjhxpwYYhISE//vijg4NDnUfii/T09DfffNOCDQMDA3fs2OHk5FTnkXhHKBT6+/vfvn3baDSKRCKKojiOKysrCw4OVigUpNPxgE6n69evX35+fm03dHR03Llzp/lMVl6zwdrKMMwXX3zxxRdfkA5im2iaHjBgwK5du4qKikwfxGq1+sGDB0OGDMHh8ou1adMmJSWFdAp+k0gkcXFxFy9e1Gg0psOk/Pz8jIyMVatWYbS1Jpo3b44XoWXCwsKw615e7969k5KS1Gq1VCqlKEqj0dy7d2/kyJH4sa4mxGLxiRMnSKcgDJMEoNZiYmKaNGly6tQp02J6enpRUdGcOXOemXEIUOcYhpk1a9aTJ0/u3LljWnPhwoX27dv37NmTbDAAqImYmBgvL6/k5GTTYnZ2tkwmGzx4MNlUwCPoGVBrMpls+fLlBw8eLCwsrKys3LJly4cffujn50c6F9iF4ODg+fPnb9myRaPR5OTkJCUlffPNNxjpB+AFT0/PdevWLV++vKCgoKioaNWqVevXrw8JCSGdC3gDw/JgiW7dugUEBMTHx+v1+iVLljRv3px0IrAj8fHxZ86cGTBgQHh4+IYNG9zc3EgnAoCaio6O9vPzmzx5slgsXrZsWXBwMOlEwCeorWChkJAQnCcEpERHR0dHR5NOAQCWaNy48b59+0inAF7CJAEAAAAA4AHUVgAAAADgAdRWAAAAAOAB1FYAAAAA4AHUVgAAAADgAdRWAAAAAOAB1FYAAAAA4AHUVgAAAADgAZrjOCs9tV6v/+D9BRUVFVZ6fptx48b10NBQBwdH0kHsy1+XL7dr345hBKSDNET37t6VyeUBAQGkg/Beyo0bwcHBjk5OpIPYmosXzjeLaO7s7Ew6SENUUFDwJDe3VevWpIPwXn5eXll5WVhYOOkgtqZ58+az3p1j2bZWvEsWTdOdXn3VaDRa7z9hG8rKyqKiOvj5+5MOYl/y8vK69+ghEolJB2mIBAKBk5NTZNu2pIPwXnl5ebv27QMDA0kHsTFc1sOHnTp18vXzI52kIcrIyLhz+/ZrMTGkg/BeampqQX5+z9deIx3E1ri6uVq8rRVrq1AofHPYUOs9v804lJQU06d3y5YtSQexL1sTEoYMHSqTyUgHaYju3Lnt4+M7fEQc6SC8dygpKaZXTJvISNJBbM1XS5d17to1qkMU6SAN0eFDhx4/eoT378tTKpXJycnYkw0K5rYCAAAAAA+gtgIAAAAAD6C2AgAAAAAPoLYCAAAAAA+gtgIAAAAAD6C2AgAAAAAPoLYCAAAAAA+gtgIAAAAAD6C2AgAAAAAPWPEuWWDDtFrt119/7e7u7uLicunSpXfffdfX15d0KLAX+fn5y5Yt69Chg8FgePDgwbx586RSKelQAFAjGo1m4cKFLVq0kMvlFy5c+OKLLxwdHUmHAt7AaCtY4ssvv8zIyJg0adLQoUM7duw4efJkvV5POhTYBYPBMHny5BYtWsTFxY0ePbq4uPizzz4jHQoAasRgMHz++ecODg7jx48fNWpU165d3377bZVKRToX8AZqK9Radnb2xo0bR48ebVrs3r17ZmZmYmIi2VRgJ06cOHH9+vW+ffuaFocPH7558+bMzEyyqQCgJtLS0latWjVu3DiBQEBR1GuvvXbs2LGTJ0+SzgW8gdoKtbZnzx6O48LDw02Lzs7OjRo1SkhIwIArWJvBYFi/fn1oaKibm5tpTWhoqEwm27t3L9lgAFAThw8flslkPj4+pkWFQuHr64tRD6g51FaoHZZlL1686OTkZJ6NJBQKvby8zp07p1aryWYDm6fRaM6dO+fm5iYWi01rlEqlq6vrxYsXjUYj2WwA8I+Sk5PFYrFQ+J/zaoRCYWhoaGpqKr4+oIZQW6F2OI67du2am5tb9ZNgHBwcjEajRqMhGAzsgVarNRgMXl5e5jVCoVChUKSlpbEsSzAYAPwjnU6Xn58vEolMMwQoimIYxsHBoaCgoLKykmw24AvUVqgDaAxACsdxLMtiqBWAj0zvX9MfpLMAP6C2Qu3QNB0WFsaybPVPmcLCQoZhzL/bAliJSCRiGKb6YZJery8tLQ0LC2MYfJoBNGgikcjBwaH6GpZlCwoKHB0d5XI5qVTALzZ43VaO4y5fvvzw4UMLtm3Xrl3jxo3rPJItoWm6ZcuWe/bsqayslEgkFEUZDIaKiooWLVrIZDLS6Rq0wsLC33//3YINXVxcevfuXed5+EgikYSEhGRnZ7Msa+qpKpWqqqqqXbt2qK01UVxcfPz4cQs2dHR0jImJEYlEdR6JL8rKyo4ePWrBhg4ODjExMTiqpyiKpunGjRtfvXrVYDCYXktGozErK6tTp06orTXBsuyhQ4csuF6YWCzu1auXUqm0Rqp6ZoO1labpjh07duzYkXQQ20TT9JAhQzZt2pSVlWU6m7uioiIzM3PmzJn4XH4xd3f3uLg40in4TSwWv/3225s2bSorK3NxcaEo6vHjxwUFBW+++SZN06TT8YCrqytehJZxcnLCrnt5/fv337p1a3FxsZ+fH0VRKpWqqKho4MCBOOysCYZhYmNjSacgDC8UqLWoqKjo6OgjR46YFq9fvy4QCN5++230BrA2mqYnTpzIcVxycrJpzYkTJ/r06dOmTRuywQCgJrp27dqpUyfz7043b94MCQnp06cP2VTAIzY42grWRtP0unXrpk6dmpaW5urqumrVqp9++gkzBKB+KBSKhISEJUuWtGvX7vbt28nJyd9//z0OmQB4QSaTJSQkxMTEtG/fnmGYxYsXHz582HwZZoB/hNoKlvDy8tq6deuff/75+PHjhIQEV1dX0onAjkRFRX333Xfnzp1zdnbetm1b9WuxAUAD5+3tff78+QsXLggEgqSkJPMlwAFqArUVLOTo6IjzhIAUX1/fgQMHkk4BAJZwcnJ6/fXXSacAXsLcVgAAAADgAdRWAAAAAOAB1FYAAAAA4AHUVgAAAADgAdRWAAAAAOAB1FYAAAAA4AHUVgAAAADgAetet9VgMFj1+W0DTVNGgwH7qp7RNGXAbv8vWJalKA475+XRNI13d93jOKFQYDRixz4fx3Icx2LnvDyWNVIcPgmtQii0sH/SHMfVbRQzrVbb+7WYkuJiKz2/zTAajTRNMwxGvuuV0WgUCASkUzRQLMtSFIXX5MvDu9tKjEYjwzC4qe9zcRzHsiw+316e0WikKAp7ss517tJl/cYNlm1rxdpKUVRZWZn1ntxmzJwePy0+PqJ5BOkg9mVUXNwPW7bIZDLSQRqilV995eXtM2bcWNJBeG/m9PjJU6e0bNWKdBCbwnFcn9divlq5ok1kJOksDdHvx0/8dvToVytXkA7Ceyd+O5aSkjJ3/jzSQWyNQCBQKpWWbWvdSQJOTk5WfX7bQNO00kGJfVXfOMrJyQm19bmEIpFYLMZr8uXRNK1U4t1d94xGo1yuwI59LqlMyjAMds7Lk8nlQpEIe7JBwU9XAAAAAMADqK0AAAAAwAOorQAAAADAA6itAAAAAMADqK0AAAAAwAOorQAAAADAA6itAAAAAMADqK0AAAAAwAPWvd0A2LCqqqrTp09XVFRER0f7+PiQjgP2JS8v7+zZsxKJpEePHg4ODqTjAEAtmL4+VCpVdHS0p6cn6TjAJxhtBUvk5+ePHz/e19d3wIABc+fOvXTpEulEYEeuXbs2bdq0Hj16tGzZcsKECU+fPiWdCABq6unTp7169fLz8+vWrdu4cePS09NJJwI+QW2FWuM4burUqW3bto2MjFQqlXPnzh03blxlZSXpXGAX1Gr12LFjZ8yY4e7uHhIS0r1793feeYfjONK5AOCfqdXqiRMnxsfHt2nTxsvL6/PPP3/ttdcKCgpI5wLeQG2FWrt27dqxY8d69eplWmzatKlSqVy3bh2qA1gbx3EJCQlGozEyMtK0Jjo6+tKlSxcuXCAbDABq4sKFC3/88Ud0dLRpsVGjRqWlpYmJiWRTAY+gtkLtcBy3d+9ed3f3gIAA0xqFQhEUFLRz506tVks2G9g8vV6fkJAQEhJins/q6+vr5uZ28OBBHDUBNHxHjx6VSqWurq6mRalUGhoaeuzYMZZlyQYDvkBthdrhOO7q1atKpVIul5vWMAzj5eWVnp6uVqvJZgObp9Fo0tPTnZychML/nE4qk8nc3NyuXbtmNBrJZgOAF+M47tatWyKRSCAQmNYIhcKgoKB79+6pVCqy2YAvUFuhdjiOy8jIcHJyEovF5pUSiYRlWb1eTzAY2AO9Xs+yrJubm3kNwzAikSg9PR2jrQANnF6vr6ioEAqFDPOf7kHTtFgsLi8vR22FGkJthTqgVqtpmqZpmnQQsDtGo1Gr1eIaWAB8xLKsRqMRCoXm8VeAF7PB67ZyHHfmzBnLrqnRuXPniIiIOo9kS2iabtOmTWZmZvXfZMvLyyUSiUQiIRis4cvLyztw4IAFG7q7uw8ePLjO8/CRWCwWCoXVB2YMBkNFRUWLFi3M4zfwAgUFBZad/uLs7PzGG29U/43F3pSUlOzZs8eCDZ2cnN544w18PFIUJRaL3d3ds7KyzL+NsCxbUlLi4eGhUCjIZuMFo9G4a9euqqqq2m4okUgGDRrk6OhojVT1zAZrK03T3bt37969O+kgtolhmKioqEuXLpWXl8tkMoqidDpdQUFBly5dTIvw33h5eU2aNIl0Cn6TSqUdOnTIzc01GAym6a1lZWUlJSWdOnXCaE1NeHh44EVoGRcXF+y6l9e6desLFy7o9XrTIZDBYLh582ZcXJxUKiUdjQcEAsGoUaNIpyAM4xNQa8OHD9fr9Tdv3jQtFhUVZWRkzJgxQyQSkQ0GNk8kEk2bNu3OnTvmCz2mp6fTNB0XF0c2GADURGxsbGVlZU5OjmmxoqJCr9ePGDGCbCrgEdRWqLWgoKBJkybt2rXLtHjixInIyMiePXuSTQV2ol+/fi1atDh27Jhpcffu3VOmTPH19SWbCgBqolWrVrNmzdq2bZvpile//fbboEGDXnnlFdK5gDdscJIA1IOFCxd+88033377rUwme/DgwcaNG80XJAKwKpFItHHjxhUrVmzatEmlUjVp0mT69OmkQwFAjQiFwg8//HDevHnffvutUCg0fX1gghnUHKoGWEImky1atIh0CrBTvr6+X3/9NekUAGAJuVy+bt060imArzBJAAAAAAB4ALUVAAAAAHgAtRUAAAAAeAC1FQAAAAB4ALUVAAAAAHgAtRUAAAAAeAC1FQAAAAB4ALUVAAAAAHjAircbMBqNaf9723p4AaFQkH7vHseypIPYF7FEfDM1VSKRkA7SEBUWFjo7O6fcuEE6CO+JRMKM9HSGwQBBXeIoKiAwIDMzQyIRk87SEBUVFpaXleH9+/IePcqqqqzEnrSGVq1bW7YhzXFc3UYx02q17783T6PVWun5bUbWgweubm4Ojo6kg9iXrAcPAgIDGYGAdJCG6ElOjlyhcHJ2Jh2E97IePHBxdXF0wp6sY4+zstzc3eUKBekgDZGqqqqosDAgKIh0EN7Lz8vTarUBgYGkg9ia0NDQBR8stGxbK9ZWqKG3xoydt+D9li1bkg5iX/r36bsncR/uhf1cn33yiY+P76Qpk0kH4b23xox99725bSIjSQexNe3bRK7fuDGqQxTpIA3R4UOHDu4/sH7jBtJBeO9w0qHk5OTFH39EOgj8H/x0BQAAAAA8gNoKAAAAADyA2goAAAAAPIDaCgAAAAA8gNoKAAAAADyA2goAAAAAPIDaCgAAAAA8gNoKAAAAADxgxZu7gm0zGAwFBQUGg8Hd3R0X7Yd6ptFoCgsLGYbx8PAQiUSk4wBALZi/Pjw9PXGHbagVjLaCJdRq9cyZM2/cuKFSqSZPnnz//n3SicCOPH78+O233y4uLs7KyoqPj6+qqiKdCABqqqqqKjY29saNG0VFRUOHDi0uLiadCPgEtRVqjeO4efPmyeXyvn37NmnSZOzYsWPHjtVoNKRzgV3Q6XRjx44dNmxYq1atOnXq5O/vP2fOHNykGoAXdDrd3Llze/fu3bt37zZt2syYMSM2NrasrIx0LuAN1FaotfT09F27dg0ZMsS0GBUVVV5evmPHDlQHqAd79+7Nzs7u1q2baXHAgAH79+9PTU0lmwoAauLq1as7d+4cNGgQwzAURUVFRaWkpBw9epR0LuAN1FaotV9//VUmk4WGhpoWHR0dQ0NDt23bptfryQYDm6fX6zdt2hQaGurs7GxaExQU5OjouH//fhw1ATR8R44ckclkXl5epkW5XB4YGJiUlIT3L9QQaivUDsuyV65cUSqVSqXStEYgEHh5eV29elWtVpPNBjZPo9EkJyc7OzubT8OSy+Wurq5//fUXy7JkswHAP7px44ZIJDINtVIUJRAIQkJCbt26ha8PqCHUVqgdjuNSU1NdXV2rn/4pl8uNRqNWqyUYDOyBTqczGo2enp7mNQKBQCqV3r59G7UVoIHT6XTFxcUikUggEJjWMAwjk8lKSkoqKyvJZgO+QG2FOmCaHkDTNOkgYHc4jtPr9UIhruUHwD+m9y9N0/j6gBqyzc/6goICyw7d3NzcHB0d6zyPLaFpunnz5rm5udUHt4qLi4VCoVgsJhis4dNqtbm5uRZsKJFIfH196zwPH5nGaarPotbpdOXl5eHh4eafHeEFLH4RikQiX19fe97JOp0uJyfHgg2x68xEIpGzs/OjR4/MM1mNRmNRUZGLi4tCoSCbjRc4jsvOzjYYDLXdkGEYPz8/2zi8t4X/DX9H07RlnxE44PtHNE23atXqxo0blZWVUqmUoii9Xl9aWtquXTvcdOAf4WX5kqRSaURERE5OjtFoNP3OWFVVVVFRERUVhVpQExZ/NmL34mvl5dE03bRp07/++stoNJrWGI3Gu3fv9unTB18fNWTZ69CW3r+2WVvd3d3d3d1Jp7BNNE0PGzZs/fr16enppp1cVlaWkZHx6aefYrT1xSQSSVBQEOkU/CYWiydNmrR06dLi4mIPDw+Koh48eFBZWTls2DCUg5oQi8V4EVpGJBJh17282NjYDRs25OXlBQcHUxRVVVWlUqmGDh2K929N0DTt7+9POgVhtlPAod40b9580KBBiYmJpsULFy54e3sPHTqUbCqwEyNGjHBzczt//rxpMSkpafjw4eHh4WRTAUBNdOjQYdCgQeYr1v35559RUVE9evQgnQt4wzZHW8GqaJpeuXLl7NmzT5486eTktHPnzh07dmCoFeqHVCrdsmXLBx980Lhx48zMzOLi4m+++QZDNQC8IJFIVq9e3b9//5YtWzIMs379+n379uGUEqg51FawhIODw4YNGwoLCzmO27JlS/WLYQFYW1hY2LZt24qLi1955ZUBAwaYL6YDAA2fk5PTqVOnCgoKKIrav3+/+RrMADWB2goWEolEPj4+pFOAnZLL5XK5nHQKALCE6eoKpFMAL2FuKwAAAADwAGorAAAAAPAAaisAAAAA8ABqKwAAAADwAGorAAAAAPAAaisAAAAA8ABqKwAAAADwAGorAAAAAPAAbbovsDXodLpPP/pYq9VY6fltRlpamp+fn7OzM+kg9iUlJaV58+a4wdJzpd9Ld3J28vT0JB2E927duuXt4+Pq4kI6iK1JS0vz9/d3cnIiHaQhKi0ty83JiWgeQToI7+Xk5KhUqrCwMNJBbI1/QMCcuXMt29aKd8liGKZX797We36bUVxc0qVrt+DgYNJB7MvDhw9f79dfLBaTDtIQ7d69KyQkJCqqA+kgvFdSUtq5S+fQ0Eakg9iax48fd3r1VezY57p3794f584OiB1IOgjvXfnrSm5uDvZkg2LF2ioUCrv37GG957cZCZs3t4tq37JlS9JB7MvyZcu6RneTyWSkgzREZ8+ecXZ2wfv35SVs3ty2Xbs2kZGkg9iaeXPntmzVOqpDFOkgDZFKrVIolHj/vjyVSqXWqLEnGxTMbQUAAAAAHkBtBQAAAAAeQG0FAAAAAB5AbQUAAAAAHkBtBQAAAAAeQG0FAAAAAB5AbQUAAAAAHkBtBQAAAAAesOLtBsC2lZSUbN68uaCgYPz48U2aNCEdB+xLZmZmQkKCUqmcOHGiu7s76ThgX06dOvXjjz+a/g4PD3///fdpmjYtlpaWvvfee6a/xWLx4sWLfX0s09IcAAATCklEQVR9yaRs2LKzs8+ePTtq1CjSQYBnUFvBEnfv3l24cOHy5cv9/PzmzJnTr1+/N954g3QosBeHDx/++eef16xZo1arp02b9umnn0ZE4PbrUE+0Wu2nn3565swZ0+IXX3xh7qwURR04cGDz5s2mv5s2bbpmzRoCERu23NzczZs3r1y5Mjw8HLUVagu1FWrNaDROnz598ODBjRs3pihq5syZAwYM6Ny5Mwa9oB6UlpbOnDlzx44dTk5OTk5OsbGxkydPPn36tFCITzOoD0lJSbNmzTp9+vTfHyouLj5//jzHcfWfikd8fX0//PDDjIyM27dvk84C/IO5rVBrFy9ePHv2bHR0tGkxNDTUy8tr1apV+LAGa+M4bt26dXK53Dy82qlTp7S0tJMnT5INBnaC47glS5acPHkyMzPz74/u3LkzNTX14MGDer2+/rPxi1QqJR0BeAm1FWqH47jExMTAwEDzhC2ZTBYYGPjzzz9rNBqy2cDm6XS67du3h4SEKJVK0xoPDw8vL69Dhw7hqAnqwf79+2/fvr127dqIiIjBgwfn5eWZHyorK9uwYcPFixcHDhzYvHnz/fv3E8wJticlJWXPnj0VFRWfffbZ/v37J/6vAwcOFBQUTJ8+3bS4YcMGlmXz8/MnTpw4derU3Nxc0sHrGGor1A7LssnJyUql0nysTNO0p6fn06dP1Wo12Wxg8zQazZMnT5ydnRnmP59dUqnU1dX1xo0bRqORbDawB4MGDSoqKjp27FhsbGxiYuKYMWNKS0tNDzk5OSUnJ9+7d++zzz7TaDTvvPMOfgSAOlFYWDhx4sTWrVv//vvv69atO3To0HfffbdkyZI///yzoKBgwIABHh4eCxcu/OOPP+7duzdp0iSGYTw9Pd95552+ffv6+PiQjl/HUFuh1nJycpRKpUgkMq8RiUQsyxoMBoKpwB4YDAaWZR0dHc1rGIYRCoUPHz7EaCvUD6VS2atXr19++WXnzp3nzp3bvXu3+SGRSBQWFrZ48eLk5OSAgIDZs2fjZQkvz93dfcWKFRERESdOnJgxY8alS5eOHDni4+Mzd+7ctLS0oqIiiqICAwNHjRr15MkT88+emZmZb7zxRvXzBW0DaivUgcrKSpqmzQNgAPXGaDSqVCp3d3fb+3SGhoym6bi4uJEjR544ceLvj3p4eKxevfrp06fmsViAlyESicRicWxsrEwmM68cPHiwwWA4duyYaZGm6cLCwj179lAUVVJSolKpbPJT0QbPveU4bvPmzX/++acF244ePbp79+51HsmW0DTdvn37tLQ0vV4vFotNKysrK+VyOabYv1hmZubSpUst2DAwMHDx4sV1noePJBKJUCgsLy83rzEYDCqVqm3btjhqqomHDx9+/vnnFmzo7e29aNGi6l+ZQNP04MGDt27d+txH27Rp06JFC5Zl6zkV2LBnPuVcXFy6deu2a9eu0aNHFxcXd+nSJT09/dtvv42Li7t8+XLnzp1N/6xHjx7mC1+0aNHi4sWL5nMD+MgGaytN0xMmTJgwYQLpILaJYZguXbqcOXOmrKxMoVBQFKXVap88eRITE4Pa+mKNGjX6/vvvSafgN6lU2rNnz9zcXJ1OZzpqKi4uzsvL69atG2prTQQHB+NFWIeEQmFISMhzH2IYxtnZ2cHBoZ4jgV0ZMWLEpEmT8vPzjx492q9fv7feeis2NjYzMzMnJ6dnz56mf9OrVy9/f3/T3/7+/ny/ViC/0wMRb7755rJly65du2a6mEBeXt7Dhw+XLl3K9zcDNHxCoTA+Pv6tt9568uRJUFAQRVG3b992dHR88803SUcDu8Nx3PHjx99+++3nPnrz5s2wsDDzT1IA1tClSxd3d/etW7cGBAS4u7tHRUU1atRo1apV/fv3N59/smjRIrIh6xbGJ6DWvLy83nvvve3bt5sWDx061KNHj1deeYVsKrAT0dHRXbt2TUpKMi1u3759/vz5bm5uZFOBPdBqtbNmzTJNJVSr1e+//36nTp1atWplevTkyZMffPCBVqulKOrMmTObN2/+6KOPSMZt8HQ6HU7krZXc3NxnTvJzdHTs37//8uXLTVdSd3R0nDdvXkJCgg3fcR3DY2CJqVOnuri4zJ07VyAQNG7ceM2aNTY59RsaIIZh1q5du2HDhtmzZ8tksmHDhg0YMIB0KLALNE0rFIoRI0Z4eHh07NhxypQpnTp1Mn/0KZXKY8eOff/9923atBkyZMjy5ct5PYPQegoLCxctWnTgwIHy8vKRI0fOmDHDfPMaeK7CwsLZs2enpqY+ePBgwoQJy5Yt8/LyMj86ZMiQp0+fenp6mhYHDBgwYsSI4OBgQmGtDrUVLCEWi8eOHTt27FjSQcAeOTs7L1iwgHQKsDtisfjLL7/88ssvn/tohw4dkpOT6zkSH7m7u2/cuHHjxo2kg/CGu7v7jh07duzY8dxH27dvv3nzZvOim5ub+bdQm4RJAgAAAADAA6itAAAAAMADqK0AAAAAwAOorQAAAADAA6itAAAAAMADqK0AAAAAwAOorQAAAADAA6itAAAAAMADVrzdAMdxGo3Ges9vS7QajVqtJp3CvtAMjX3+3xiNRpY1Yv+8PJqmtFot9mQd4ziRSKTTYcc+n8Fg4DgOO+fl6XQ6fBJaiUwms2xD+pn729YhrVb7xoDY0pISKz2/zaiqqpJIJEIh7lhWryorKxUKBe5J+1wqlUooFIrFYtJBeK+qqkoskYjw7q5r+Nh8AYPBoNVqFQoF6SC8p9VqWZa1uGDBf9OhY8fVa7+1bFsr1laWZR9lZVnpyW3Jx4s/Hj1mdHiTcNJB7MucmbOWLv9KKpWSDtIQrV+3zs/Pf+AbA0kH4b1PP/5keFxcs4hmpIPYFI6iJr0z4d25c5u3aE46S0N08eLF30/8/uHiD0kH4b0zp87cu3d30pTJpIPYGpqmg4KDLdvWioeqDMMEh4RY7/ltCOfj54t9Vc/0en1QcDAOo59LoVDIZDK8Jl8ey7I+vj7Yk3WutKTE08sLO/a5bt26JRIKsXNe3q20W48eP8KebFBwShYAAAAA8ABqKwAAAADwAGorAAAAAPAAaisAAAAA8ABqKwAAAADwAGorAAAAAPAAaisAAAAA8ABqKwAAAADwgK3VVoPBkJ+fv3Llyq1btz7zEMdxaWlpQ4YM6dy587Fjx4xGY/VHdTrdw4cPP/jgg7/++qse8/IVx3GVlZV//vnnwIEDS3D/XqhfRqPx+PHjXbt2jY2NTUlJsd6t/gBeICsry83N7dGjR9VXPn78mP5fjo6Od+/eJRWvwTJ9fZw6dWratGmkswD/2NQNnTmO++67727evLlp06Z169Y98+jRo0c3bdq0detWmUz2+eef37hxY968eaZb0nMct3r16j/++OPo0aODBg0ikZ1nLl++fOjQoU2bNjk4OJDOAnZnyZIler3+1KlTLMuOGjVqzJgxeNtCPauoqBg0aFBxcfEz6zdt2mT+OyIiIjwcd+1+1vXr148cObJmzZrAwEDSWYB/bKq20jQ9Y8aMkpKSXbt2PfNQTk7O9OnTt27daqpZEydObNmyZffu3aOiokwbzps3r3v37kePHiWQm4c6duzYsWNHrVabmJhIOgvYlzt37mzZsuXo0aNCoZCiqPHjx5vevM7OzqSjgb3gOG7Hjh29e/e+fv169fXp6ek6nQ7D/y8WGRkZGRl5//791NRU0lmAf2xtkgBFUQzDmMZQqzt16lRJSUmzZs1Miy4uLgqF4pdffnlmw3qKaCsEAgHpCGBfWJZds2aNl5dXUFCQaU2rVq2KioqSkpLIBgO7cvr0aaPR2KpVq2fWb9y4cceOHTNnzrxw4YLBYCCSjS9Mh50AtWUvRe3kyZNisVgul5sWRSJRkyZNLl++rNVqyQYDgJrTaDS7du0KCAiQSqWmNS4uLp6enseOHWNZlmw2sBPl5eXPnZeZn59/8uRJlUq1cePGzp07f/LJJ8+cQQFgsYqKiu3bt7///vv3799v1arVrFmzPDw8GIZRKBTbt2+/evWqr68vwzByuXzJkiUcx129etXNzc3Pzy83N5d09jpmF7VVr9dnZWUJhULz4R3DMB4eHtnZ2RUVFWSzAUDNaTQanU7n4eFh/kVFLBa7uLikpqaiIkD9+OKLL955552//zrn6el55cqVx48f3717NyYmZtmyZf/+97+JJAQbc+vWrUGDBo0bN+7p06d37twZMmRIeXn5w4cPX3311TfffHPs2LFt27ZNT0+PjIyMi4tbvHgxTdNt27bduXNnSkqKr68v6fh1zC5qK8dxLMs+M3OApmm9Xo/fcQB4xDRr8JnZKTRN43IWUD+OHj3ao0eP4ODg5z5K07RMJgsODj5w4MCoUaPWrVun1+vrOSHYnoiIiMTExJYtWxYVFcXExHzyySdbtmxRKBRTpkw5e/ZsXl4eRVEKhaJ3795nz54tLy+nKEqv12dkZLi5uZHOXvfsorYyDCMSiaqvYVm2pKRELpebf2oEgIbPNHO9+ikver2+vLw8MDDw7zPaAerWo0ePjhw50rNnz3/8lzKZbOHChQaDwdQhAF4SwzACgaBZs2bV5wT379+fYZgTJ05QFGU0Gh0cHIqKivbu3UtR1N27d80nAJw8efLn/3XkyBG+j9bZxZxooVDo7+9//fp1g8EgkUio/71uXGBgoFKpJJ0O7MWVK1diY2Mt2LBVq1a//fZbnefhI4lEIpVK8/PzzWsMBoNGo+nUqRNOEKyJGzdu9O3b14INGzdufOjQIUdHxzqPxCMJCQmrV69evXp19ZVBQUEjR4786aefnvnHQUFBzZo1w9EUWI+rq2unTp22bds2evTo69evv/HGG5mZmevXrx8xYsRff/01ZMgQ0z9bsmTJ6dOnTX+3aNHi4sWLvG4+dlFbKYqKiYnZt2+fWq1WKBQURel0ulu3br377rs4mRHqTfv27Z88eUI6Bb9JpdK4uLjk5GSNRmP6qSQ/Pz8zM3P58uXoBzXRunVrvAgtNn369Li4OPNiUlLS/PnzT5482aRJk7//Y71er1AocF02sKrRo0dPnDgxLy/v3Llz8fHxb731Vp8+fdLT0+VyuZOTk+nfbN26VaVSmf6WSCTmc9N5yi4mCVAU1bNnT09Pz6tXr5oWnzx5IhKJhg4dSjYVANQKwzAzZ87Mycm5d++eac2lS5dat24dExNDNhjYAw8Pj6bV+Pj4UBTVqFGj5571kpiY2K9fP1xXEayqc+fOnp6e3377bdeuXUUiUWRkZNOmTWfNmlX9NRkYGGh+0YaEhPD9Ncnv9M9VXl5uNBozMzOrXxDH29t7/fr1q1evLioqKi8vX7NmzbJly545RC4tLTXNYsbFomtCr9eXlJQ8efLk7/eJAbCesLCw+Pj47du363S6/Pz8ffv2rVixQiaTkc4F9u6nn37q0aPH/v37Dx06tGTJkvz8/Lfffpt0qAbKaDSWlZWVlZXhZMoaKi0tLS8vT0lJeWZmqpOTU2xs7C+//NK0aVOKohwcHObOnfvgwYPmzZsTSmp1tvYT+bJly1atWiWXy7dt23bs2LHTp0+bx8l79uzp7+8/fPhwhmHWrVsXFhZWfcO4uLizZ896enrOmzdv8+bNBw8e5PtAulU9evSoY8eOFEUpFIouXbrMmTNnwYIFpEOBvZg/f/7x48dfeeWViIiI7777zsPDg3QisEcymczb29s8qXrAgAEnTpyYMWNGv379PvroIz8/P7LxGqzHjx9369ZNo9FQFBUREbFs2bJx48aRDtWgPX78uG/fviqVKjU1NSgo6Pz586GhoeZHhwwZEhYWZpoASVHUwIEDKysrXV1dCYW1OlurrQsWLHhBfwoPD//999+f+9Df7wcLLxAYGIgZckBQr169evXqRToF2LUhQ4aYz3qhKMrR0XHz5s0E8/BFQEDAgwcPSKfgk4CAgLS0tP/2qOlmueZFJyenv98Lw5bY4CQBAAAAALA9qK0AAAAAwAOorQAAAADAA6itAAAAAMADqK0AAAAAwAOorQAAAADAA6itAAAAAMADqK0AAAAAwANWvN2AwWA49ttvFG6U+k9UKtX5c+ceZ2WRDmJfBELB0SNHJGIx6SANUU52Nsuyh5OSSAfhPbVKdeH8+dycHNJBbApHUd4+3snJVwry80hnaYju3r2r1Wrw/n15586eKy8vx56scw6Ojl27dbNsW5qzWq3UarXdXu1cVFRkpee3GQGBgY8fPSKdwu74+fvlZKNMPF94ePi9e/dIp7AF/v7+2dnZpFOAfaFpK36z25XItm2vXb1KOoUNiu7e/YctCZZta8UXN8dxKpXKSk9uS/R6vUgkIp3C7uh0OjGGWv8LjUYjlUpJp7AFeHdD/eM4jqZp0ilsgUqlksvlpFPYJoVCYdmGOCYDAAAAAB7AKVkAAAAAwAOorQAAAADAA6itAAAAAMADqK0AAAAAwAOorQAAAADAA6itAAAAAMADqK0AAAAAwAOorQAAAADAA/8PUv8m77+RvEEAAAAASUVORK5CYII=;" parent="1" vertex="1">
          <mxGeometry x="120" y="190" width="284.76" height="205" as="geometry" />
        </mxCell>
        <mxCell id="e9ZGmNRertge3ZIaKrM7-13" value="" style="endArrow=none;html=1;rounded=0;fontSize=12;fontColor=#FF0000;strokeColor=#000000;" parent="1" edge="1">
          <mxGeometry width="50" height="50" relative="1" as="geometry">
            <mxPoint x="450" y="150" as="sourcePoint" />
            <mxPoint x="490" y="150" as="targetPoint" />
          </mxGeometry>
        </mxCell>
        <mxCell id="e9ZGmNRertge3ZIaKrM7-14" value="" style="endArrow=none;html=1;rounded=0;fontSize=12;fontColor=#FF0000;strokeColor=#000000;" parent="1" edge="1">
          <mxGeometry width="50" height="50" relative="1" as="geometry">
            <mxPoint x="450" y="159.93" as="sourcePoint" />
            <mxPoint x="490" y="159.93" as="targetPoint" />
          </mxGeometry>
        </mxCell>
        <mxCell id="e9ZGmNRertge3ZIaKrM7-15" value="" style="endArrow=none;html=1;rounded=0;fontSize=12;fontColor=#FF0000;strokeColor=#000000;" parent="1" edge="1">
          <mxGeometry width="50" height="50" relative="1" as="geometry">
            <mxPoint x="450" y="140" as="sourcePoint" />
            <mxPoint x="490" y="140" as="targetPoint" />
          </mxGeometry>
        </mxCell>
        <mxCell id="e9ZGmNRertge3ZIaKrM7-16" value="" style="endArrow=none;html=1;rounded=0;fontSize=12;fontColor=#FF0000;strokeColor=#000000;" parent="1" edge="1">
          <mxGeometry width="50" height="50" relative="1" as="geometry">
            <mxPoint x="450" y="180" as="sourcePoint" />
            <mxPoint x="490" y="180" as="targetPoint" />
          </mxGeometry>
        </mxCell>
        <mxCell id="e9ZGmNRertge3ZIaKrM7-17" value="" style="endArrow=none;html=1;rounded=0;fontSize=12;fontColor=#FF0000;strokeColor=#000000;" parent="1" edge="1">
          <mxGeometry width="50" height="50" relative="1" as="geometry">
            <mxPoint x="450" y="189.93" as="sourcePoint" />
            <mxPoint x="490" y="189.93" as="targetPoint" />
          </mxGeometry>
        </mxCell>
        <mxCell id="e9ZGmNRertge3ZIaKrM7-18" value="" style="endArrow=none;html=1;rounded=0;fontSize=12;fontColor=#FF0000;strokeColor=#000000;" parent="1" edge="1">
          <mxGeometry width="50" height="50" relative="1" as="geometry">
            <mxPoint x="450" y="170" as="sourcePoint" />
            <mxPoint x="490" y="170" as="targetPoint" />
          </mxGeometry>
        </mxCell>
        <mxCell id="e9ZGmNRertge3ZIaKrM7-19" value="" style="endArrow=none;html=1;rounded=0;fontSize=12;fontColor=#FF0000;strokeColor=#000000;" parent="1" edge="1">
          <mxGeometry width="50" height="50" relative="1" as="geometry">
            <mxPoint x="450" y="210" as="sourcePoint" />
            <mxPoint x="490" y="210" as="targetPoint" />
          </mxGeometry>
        </mxCell>
        <mxCell id="e9ZGmNRertge3ZIaKrM7-20" value="" style="endArrow=none;html=1;rounded=0;fontSize=12;fontColor=#FF0000;strokeColor=#000000;" parent="1" edge="1">
          <mxGeometry width="50" height="50" relative="1" as="geometry">
            <mxPoint x="450" y="219.93" as="sourcePoint" />
            <mxPoint x="490" y="219.93" as="targetPoint" />
          </mxGeometry>
        </mxCell>
        <mxCell id="e9ZGmNRertge3ZIaKrM7-21" value="" style="endArrow=none;html=1;rounded=0;fontSize=12;fontColor=#FF0000;strokeColor=#000000;" parent="1" edge="1">
          <mxGeometry width="50" height="50" relative="1" as="geometry">
            <mxPoint x="450" y="200" as="sourcePoint" />
            <mxPoint x="490" y="200" as="targetPoint" />
          </mxGeometry>
        </mxCell>
        <mxCell id="e9ZGmNRertge3ZIaKrM7-22" value="" style="endArrow=none;html=1;rounded=0;fontSize=12;fontColor=#FF0000;strokeColor=#000000;" parent="1" edge="1">
          <mxGeometry width="50" height="50" relative="1" as="geometry">
            <mxPoint x="450" y="240" as="sourcePoint" />
            <mxPoint x="490" y="240" as="targetPoint" />
          </mxGeometry>
        </mxCell>
        <mxCell id="e9ZGmNRertge3ZIaKrM7-23" value="" style="endArrow=none;html=1;rounded=0;fontSize=12;fontColor=#FF0000;strokeColor=#000000;" parent="1" edge="1">
          <mxGeometry width="50" height="50" relative="1" as="geometry">
            <mxPoint x="450" y="249.93" as="sourcePoint" />
            <mxPoint x="490" y="249.93" as="targetPoint" />
          </mxGeometry>
        </mxCell>
        <mxCell id="e9ZGmNRertge3ZIaKrM7-24" value="" style="endArrow=none;html=1;rounded=0;fontSize=12;fontColor=#FF0000;strokeColor=#000000;" parent="1" edge="1">
          <mxGeometry width="50" height="50" relative="1" as="geometry">
            <mxPoint x="450" y="230" as="sourcePoint" />
            <mxPoint x="490" y="230" as="targetPoint" />
          </mxGeometry>
        </mxCell>
        <mxCell id="e9ZGmNRertge3ZIaKrM7-25" style="edgeStyle=none;rounded=0;orthogonalLoop=1;jettySize=auto;html=1;exitX=0.5;exitY=1;exitDx=0;exitDy=0;fontSize=12;fontColor=#FF0000;strokeColor=#000000;" parent="1" source="e9ZGmNRertge3ZIaKrM7-8" target="e9ZGmNRertge3ZIaKrM7-8" edge="1">
          <mxGeometry relative="1" as="geometry" />
        </mxCell>
        <mxCell id="e9ZGmNRertge3ZIaKrM7-28" value="" style="endArrow=none;html=1;rounded=0;fontSize=12;fontColor=#FF0000;strokeColor=#000000;" parent="1" edge="1">
          <mxGeometry width="50" height="50" relative="1" as="geometry">
            <mxPoint x="450" y="270" as="sourcePoint" />
            <mxPoint x="490" y="270" as="targetPoint" />
          </mxGeometry>
        </mxCell>
        <mxCell id="e9ZGmNRertge3ZIaKrM7-29" value="" style="endArrow=none;html=1;rounded=0;fontSize=12;fontColor=#FF0000;strokeColor=#000000;" parent="1" edge="1">
          <mxGeometry width="50" height="50" relative="1" as="geometry">
            <mxPoint x="450" y="279.93" as="sourcePoint" />
            <mxPoint x="490" y="279.93" as="targetPoint" />
          </mxGeometry>
        </mxCell>
        <mxCell id="e9ZGmNRertge3ZIaKrM7-30" value="" style="endArrow=none;html=1;rounded=0;fontSize=12;fontColor=#FF0000;strokeColor=#000000;" parent="1" edge="1">
          <mxGeometry width="50" height="50" relative="1" as="geometry">
            <mxPoint x="450" y="260" as="sourcePoint" />
            <mxPoint x="490" y="260" as="targetPoint" />
          </mxGeometry>
        </mxCell>
        <mxCell id="e9ZGmNRertge3ZIaKrM7-31" value="" style="endArrow=none;html=1;rounded=0;fontSize=12;fontColor=#FF0000;strokeColor=#000000;" parent="1" edge="1">
          <mxGeometry width="50" height="50" relative="1" as="geometry">
            <mxPoint x="450" y="300" as="sourcePoint" />
            <mxPoint x="490" y="300" as="targetPoint" />
          </mxGeometry>
        </mxCell>
        <mxCell id="e9ZGmNRertge3ZIaKrM7-32" value="" style="endArrow=none;html=1;rounded=0;fontSize=12;fontColor=#FF0000;strokeColor=#000000;" parent="1" edge="1">
          <mxGeometry width="50" height="50" relative="1" as="geometry">
            <mxPoint x="450" y="309.93" as="sourcePoint" />
            <mxPoint x="490" y="309.93" as="targetPoint" />
          </mxGeometry>
        </mxCell>
        <mxCell id="e9ZGmNRertge3ZIaKrM7-33" value="" style="endArrow=none;html=1;rounded=0;fontSize=12;fontColor=#FF0000;strokeColor=#000000;" parent="1" edge="1">
          <mxGeometry width="50" height="50" relative="1" as="geometry">
            <mxPoint x="450" y="290" as="sourcePoint" />
            <mxPoint x="490" y="290" as="targetPoint" />
          </mxGeometry>
        </mxCell>
        <mxCell id="e9ZGmNRertge3ZIaKrM7-34" value="" style="endArrow=none;html=1;rounded=0;fontSize=12;fontColor=#FF0000;strokeColor=#000000;" parent="1" edge="1">
          <mxGeometry width="50" height="50" relative="1" as="geometry">
            <mxPoint x="450" y="330" as="sourcePoint" />
            <mxPoint x="490" y="330" as="targetPoint" />
          </mxGeometry>
        </mxCell>
        <mxCell id="e9ZGmNRertge3ZIaKrM7-35" value="" style="endArrow=none;html=1;rounded=0;fontSize=12;fontColor=#FF0000;strokeColor=#000000;" parent="1" edge="1">
          <mxGeometry width="50" height="50" relative="1" as="geometry">
            <mxPoint x="450" y="339.93" as="sourcePoint" />
            <mxPoint x="490" y="339.93" as="targetPoint" />
          </mxGeometry>
        </mxCell>
        <mxCell id="e9ZGmNRertge3ZIaKrM7-36" value="" style="endArrow=none;html=1;rounded=0;fontSize=12;fontColor=#FF0000;strokeColor=#000000;" parent="1" edge="1">
          <mxGeometry width="50" height="50" relative="1" as="geometry">
            <mxPoint x="450" y="320" as="sourcePoint" />
            <mxPoint x="490" y="320" as="targetPoint" />
          </mxGeometry>
        </mxCell>
        <mxCell id="e9ZGmNRertge3ZIaKrM7-37" value="" style="endArrow=none;html=1;rounded=0;fontSize=12;fontColor=#FF0000;strokeColor=#000000;" parent="1" edge="1">
          <mxGeometry width="50" height="50" relative="1" as="geometry">
            <mxPoint x="450" y="360" as="sourcePoint" />
            <mxPoint x="490" y="360" as="targetPoint" />
          </mxGeometry>
        </mxCell>
        <mxCell id="e9ZGmNRertge3ZIaKrM7-38" value="" style="endArrow=none;html=1;rounded=0;fontSize=12;fontColor=#FF0000;strokeColor=#000000;" parent="1" edge="1">
          <mxGeometry width="50" height="50" relative="1" as="geometry">
            <mxPoint x="450" y="369.93" as="sourcePoint" />
            <mxPoint x="490" y="369.93" as="targetPoint" />
          </mxGeometry>
        </mxCell>
        <mxCell id="e9ZGmNRertge3ZIaKrM7-39" value="" style="endArrow=none;html=1;rounded=0;fontSize=12;fontColor=#FF0000;strokeColor=#000000;" parent="1" edge="1">
          <mxGeometry width="50" height="50" relative="1" as="geometry">
            <mxPoint x="450" y="350" as="sourcePoint" />
            <mxPoint x="490" y="350" as="targetPoint" />
          </mxGeometry>
        </mxCell>
      </root>
    </mxGraphModel>
  </diagram>
</mxfile>
